<!-- Generator: Adobe Illustrator 22.0.1, SVG Export Plug-In  -->
<svg version="1.1"
	 xmlns="http://www.w3.org/2000/svg" xmlns:xlink="http://www.w3.org/1999/xlink" xmlns:a="http://ns.adobe.com/AdobeSVGViewerExtensions/3.0/"
	 x="0px" y="0px" width="131.01px" height="31.33px" viewBox="0 0 131.01 31.33" style="enable-background:new 0 0 131.01 31.33;"
	 xml:space="preserve">
<style type="text/css">
	.st0{fill:#FFFFFF;}
</style>
<defs>
</defs>
<g>
	<path class="st0" d="M1.992,22.729V3.77h8.043c1.616,0,2.846,0.17,3.687,0.511c0.842,0.341,1.514,0.942,2.018,1.805
		c0.503,0.862,0.755,1.814,0.755,2.858c0,1.345-0.417,2.479-1.25,3.4c-0.833,0.924-2.12,1.51-3.86,1.76
		c0.635,0.318,1.117,0.633,1.447,0.943c0.701,0.673,1.365,1.514,1.992,2.522l3.155,5.16H14.96l-2.401-3.944
		c-0.701-1.139-1.278-2.009-1.731-2.613c-0.454-0.603-0.86-1.025-1.219-1.267c-0.359-0.241-0.725-0.409-1.096-0.505
		c-0.272-0.061-0.718-0.09-1.336-0.09H4.393v8.419H1.992z M4.393,12.138h5.16c1.097,0,1.954-0.118,2.573-0.356
		c0.619-0.236,1.089-0.616,1.41-1.138c0.322-0.521,0.483-1.089,0.483-1.7c0-0.896-0.312-1.635-0.935-2.212s-1.606-0.866-2.951-0.866
		H4.393V12.138z"/>
	<path class="st0" d="M28.546,21.035c-0.825,0.733-1.619,1.25-2.382,1.552s-1.582,0.453-2.456,0.453
		c-1.443,0-2.553-0.368-3.328-1.106c-0.775-0.736-1.163-1.679-1.163-2.825c0-0.673,0.146-1.287,0.438-1.843
		c0.293-0.557,0.677-1.003,1.151-1.339c0.474-0.336,1.008-0.591,1.603-0.763c0.437-0.121,1.097-0.237,1.979-0.35
		c1.798-0.225,3.122-0.491,3.972-0.802c0.008-0.319,0.013-0.521,0.013-0.608c0-0.947-0.211-1.616-0.631-2.004
		c-0.569-0.526-1.415-0.789-2.537-0.789c-1.048,0-1.821,0.191-2.32,0.575s-0.868,1.063-1.107,2.037L19.6,12.913
		c0.198-0.974,0.524-1.761,0.978-2.36c0.454-0.599,1.109-1.061,1.968-1.384c0.857-0.323,1.852-0.484,2.982-0.484
		c1.121,0,2.033,0.138,2.734,0.413c0.701,0.276,1.217,0.623,1.546,1.041c0.33,0.419,0.562,0.947,0.693,1.585
		c0.074,0.396,0.111,1.112,0.111,2.146v3.104c0,2.164,0.048,3.533,0.143,4.105c0.095,0.574,0.282,1.123,0.562,1.649h-2.326
		C28.761,22.247,28.612,21.682,28.546,21.035z M28.36,15.836c-0.809,0.346-2.021,0.639-3.638,0.88
		c-0.916,0.138-1.563,0.293-1.942,0.466c-0.38,0.172-0.673,0.424-0.879,0.756s-0.31,0.701-0.31,1.106
		c0,0.62,0.225,1.138,0.675,1.552c0.449,0.414,1.107,0.621,1.974,0.621c0.857,0,1.621-0.196,2.289-0.589s1.158-0.929,1.473-1.61
		c0.238-0.525,0.358-1.302,0.358-2.328V15.836z"/>
	<path class="st0" d="M42.589,22.729v-1.733c-0.833,1.363-2.058,2.044-3.675,2.044c-1.048,0-2.011-0.302-2.889-0.905
		c-0.879-0.604-1.56-1.446-2.042-2.528s-0.724-2.326-0.724-3.731c0-1.371,0.219-2.614,0.655-3.731
		c0.438-1.116,1.094-1.972,1.968-2.567c0.874-0.595,1.852-0.892,2.933-0.892c0.792,0,1.497,0.175,2.116,0.523
		c0.618,0.349,1.121,0.804,1.509,1.364V3.77h2.215v18.96H42.589z M35.549,15.875c0,1.759,0.354,3.074,1.064,3.944
		c0.709,0.871,1.546,1.307,2.512,1.307c0.973,0,1.8-0.416,2.48-1.248s1.021-2.102,1.021-3.809c0-1.88-0.346-3.26-1.039-4.139
		c-0.692-0.88-1.547-1.319-2.562-1.319c-0.989,0-1.816,0.422-2.48,1.268C35.881,12.724,35.549,14.056,35.549,15.875z"/>
	<path class="st0" d="M47.329,15.862c0-2.544,0.676-4.428,2.029-5.651c1.13-1.018,2.507-1.526,4.132-1.526
		c1.807,0,3.283,0.618,4.43,1.855s1.721,2.946,1.721,5.128c0,1.768-0.254,3.158-0.762,4.171c-0.507,1.014-1.245,1.8-2.215,2.36
		c-0.969,0.561-2.027,0.841-3.174,0.841c-1.839,0-3.326-0.616-4.46-1.85C47.896,19.957,47.329,18.182,47.329,15.862z M49.618,15.862
		c0,1.759,0.366,3.075,1.101,3.95c0.734,0.876,1.658,1.313,2.771,1.313c1.105,0,2.025-0.44,2.76-1.319s1.102-2.22,1.102-4.022
		c0-1.698-0.37-2.985-1.107-3.86c-0.738-0.875-1.656-1.312-2.754-1.312c-1.113,0-2.037,0.436-2.771,1.307
		C49.984,12.788,49.618,14.104,49.618,15.862z"/>
	<path class="st0" d="M62.251,22.729V8.994h2.004v1.953c0.965-1.509,2.359-2.263,4.183-2.263c0.792,0,1.52,0.148,2.184,0.446
		c0.664,0.297,1.161,0.688,1.491,1.17c0.33,0.483,0.561,1.057,0.692,1.721c0.083,0.431,0.124,1.186,0.124,2.263v8.445h-2.228v-8.354
		c0-0.948-0.086-1.658-0.26-2.128c-0.173-0.47-0.48-0.845-0.922-1.125s-0.959-0.42-1.553-0.42c-0.948,0-1.768,0.314-2.456,0.944
		c-0.688,0.629-1.033,1.823-1.033,3.582v7.501H62.251z"/>
	<path class="st0" d="M83.595,22.729V3.77h3.613l4.293,13.425c0.396,1.25,0.685,2.186,0.866,2.807
		c0.206-0.69,0.528-1.703,0.966-3.04L97.676,3.77h3.229v18.96h-2.314V6.86L93.32,22.729h-2.165L85.908,6.589v16.141H83.595z"/>
	<path class="st0" d="M113.068,21.035c-0.825,0.733-1.619,1.25-2.382,1.552s-1.582,0.453-2.456,0.453
		c-1.443,0-2.553-0.368-3.328-1.106c-0.775-0.736-1.163-1.679-1.163-2.825c0-0.673,0.146-1.287,0.438-1.843
		c0.293-0.557,0.677-1.003,1.151-1.339c0.474-0.336,1.008-0.591,1.603-0.763c0.437-0.121,1.097-0.237,1.979-0.35
		c1.798-0.225,3.122-0.491,3.972-0.802c0.008-0.319,0.013-0.521,0.013-0.608c0-0.947-0.211-1.616-0.631-2.004
		c-0.569-0.526-1.415-0.789-2.537-0.789c-1.048,0-1.821,0.191-2.32,0.575s-0.868,1.063-1.107,2.037l-2.178-0.311
		c0.198-0.974,0.524-1.761,0.978-2.36c0.454-0.599,1.109-1.061,1.968-1.384c0.857-0.323,1.852-0.484,2.982-0.484
		c1.121,0,2.033,0.138,2.734,0.413c0.701,0.276,1.217,0.623,1.546,1.041c0.33,0.419,0.562,0.947,0.693,1.585
		c0.074,0.396,0.111,1.112,0.111,2.146v3.104c0,2.164,0.048,3.533,0.143,4.105c0.095,0.574,0.282,1.123,0.562,1.649h-2.326
		C113.283,22.247,113.135,21.682,113.068,21.035z M112.883,15.836c-0.809,0.346-2.021,0.639-3.638,0.88
		c-0.916,0.138-1.563,0.293-1.942,0.466c-0.38,0.172-0.673,0.424-0.879,0.756s-0.31,0.701-0.31,1.106
		c0,0.62,0.225,1.138,0.675,1.552c0.449,0.414,1.107,0.621,1.974,0.621c0.857,0,1.621-0.196,2.289-0.589s1.158-0.929,1.473-1.61
		c0.238-0.525,0.358-1.302,0.358-2.328V15.836z"/>
	<path class="st0" d="M118.588,27.993V8.994h2.028v1.785c0.479-0.698,1.02-1.223,1.621-1.571c0.603-0.349,1.332-0.523,2.19-0.523
		c1.122,0,2.111,0.302,2.97,0.905c0.857,0.604,1.505,1.455,1.942,2.554c0.438,1.1,0.656,2.305,0.656,3.615
		c0,1.405-0.241,2.671-0.725,3.796c-0.482,1.125-1.184,1.987-2.104,2.586c-0.92,0.6-1.887,0.899-2.901,0.899
		c-0.742,0-1.408-0.164-1.998-0.491c-0.59-0.328-1.074-0.742-1.454-1.242v6.687H118.588z M120.604,15.939
		c0,1.768,0.342,3.074,1.026,3.919s1.514,1.268,2.487,1.268c0.99,0,1.838-0.438,2.543-1.313c0.705-0.875,1.058-2.23,1.058-4.066
		c0-1.751-0.345-3.061-1.033-3.932s-1.512-1.307-2.468-1.307c-0.949,0-1.788,0.464-2.519,1.391
		C120.97,12.825,120.604,14.172,120.604,15.939z"/>
</g>
</svg>