<!-- Generator: Adobe Illustrator 22.0.1, SVG Export Plug-In  -->
<svg version="1.1"
	 xmlns="http://www.w3.org/2000/svg" xmlns:xlink="http://www.w3.org/1999/xlink" xmlns:a="http://ns.adobe.com/AdobeSVGViewerExtensions/3.0/"
	 x="0px" y="0px" width="750px" height="1334px" viewBox="0 0 750 1334" style="enable-background:new 0 0 750 1334;"
	 xml:space="preserve">
<style type="text/css">
	.st0{fill:#379EC8;}
	.st1{fill:#FFFFFF;}
	.st2{fill:none;stroke:#F9D50A;stroke-width:3;stroke-miterlimit:10;}
	.st3{fill:none;stroke:#379EC8;stroke-width:0.75;stroke-miterlimit:10;}
	.st4{fill:#F9D50A;}
</style>
<defs>
</defs>
<rect id="_x31_stPage_x5F_rec_1_" class="st0" width="750" height="1334"/>
<circle class="st1" cx="372.887" cy="647.857" r="331.1"/>
<circle class="st2" cx="375.178" cy="647.857" r="359.548"/>
<path class="st0" d="M91.976,647.985l9.642-3.91c0.842,2.299,2.706,3.91,4.863,3.91h35.223l0,0l11.913-24.043l-11.913-26.343l0,0
	h-35.223c-2.206,0-4.111,1.684-4.924,4.068l-11.258-2.876l-48.793-12.463v6.94l44.845,11.097v39.11l-44.845,17.4v7.576
	L91.976,647.985z M91.976,605.758l9.162,2.267v29.713l-9.162,3.555V605.758z"/>
<path class="st0" d="M565.599,421.097l-3.558,7.008c-1.475-0.553-3.208-0.242-4.389,0.94l-19.299,19.299l0,0l4.079,17.133
	l18.148,5.093l0,0l19.299-19.299c1.209-1.209,1.51-2.996,0.903-4.492l7.437-4.9l32.232-21.237l-3.061-3.061l-29.466,19.676
	l-17.252-17.252l16.895-32.246l-3.342-3.342L565.599,421.097z M584.227,439.725l-6.02,4.02l-13.107-13.107l3.452-6.588
	L584.227,439.725z"/>
<path class="st0" d="M95.704,576.438c0.54,2.915,8.772-4.088,11.726-3.502c2.954,0.586,9.003-2.92,12.039-0.976
	c3.036,1.944,2.025-10.594,6.648-9.643c4.623,0.951-4.581-16.619,1.154-12.948s10.027-4.52,12.538-3.984
	c2.51,0.537-2.334-8.985,0.902-9.582s8.169-13.505,1.59-18.83c-6.579-5.325-6.66,4.46-11.699-2.094
	c-5.039-6.555-3.854,0.386-6.261,0.272c-2.407-0.114-5.07,4.365-11.534,9.263c-2.573,1.949-2.272,3.952-0.979,5.656
	c-4.613,1.433-9.334,2.76-13.03,3.482c-10.8,2.109-20.654-2.891-27.335-6.221c-6.681-3.331-1.618-23.616-1.618-23.616
	l-13.616,36.445c4.94-7.846,19.42-5.245,19.42-5.245s20.948,9.808,21.114,13.065c0.071,1.391,2.197,3.933,4.61,6.39
	c-4.604,3.914-9.682,9.695-11.902,11.703c-3.388,3.063,2.878,8.568,2.878,8.568S95.163,573.524,95.704,576.438z M114.852,532.765
	c1.211,0.814,2.356,1.399,2.872,1.649c-1.344-0.193-4.088,4.574-7.878,7.129l-8.002-2.909L114.852,532.765z M102.539,551.68
	c-6.839-7.528-0.733-9.47-0.733-9.47l5.293,1.745c-0.411,2.587,4.571,6.135,0.659,6.611c-1.182,0.144-2.673,0.956-4.299,2.146
	C103.168,552.38,102.865,552.039,102.539,551.68z"/>
<g>
	<polyline class="st0" points="645.8,447.764 597.15,496.414 581.727,511.837 584.921,515.032 651.788,448.165 	"/>
	
		<rect x="573.479" y="506.821" transform="matrix(0.7071 0.7071 -0.7071 0.7071 531.7084 -268.7831)" class="st0" width="33.65" height="1.233"/>
	
		<rect x="578.218" y="502.083" transform="matrix(0.7071 0.7071 -0.7071 0.7071 529.7457 -273.5214)" class="st0" width="33.65" height="1.233"/>
	
		<rect x="567.314" y="514.415" transform="matrix(0.7071 0.7071 -0.7071 0.7071 535.2728 -262.1991)" class="st0" width="33.65" height="1.233"/>
	<path class="st3" d="M553.994,352.386c0,0,30.616,67.227,27.733,104.973s-2.884,37.746-2.884,37.746l23.794,23.794
		c0,0,16.171,13.909,33.454,11.87s66.513,12.817,66.513,12.817"/>
	<path class="st3" d="M558.623,348.355c0,0,30.616,67.227,27.733,104.973s-2.884,37.746-2.884,37.746l23.794,23.794
		c0,0,16.171,13.909,33.454,11.87c17.283-2.039,66.513,12.817,66.513,12.817"/>
	<path class="st3" d="M538.353,340.147c0,0,40.108,88.543,37.225,126.289s-2.884,37.746-2.884,37.746l23.794,23.794
		c0,0,16.171,13.909,33.454,11.87s81.846,18.888,81.846,18.888"/>
</g>
<g>
	<polyline class="st0" points="93.282,830.24 143.529,777.691 159.459,761.031 156.16,757.58 87.097,829.807 	"/>
	<polygon class="st0" points="138.763,752.462 163.338,778.163 162.438,779.105 137.862,753.404 	"/>
	<polygon class="st0" points="133.869,757.58 158.444,783.282 157.544,784.223 132.968,758.522 	"/>
	<polygon class="st0" points="145.131,744.259 169.706,769.96 168.805,770.902 144.23,745.2 	"/>
	<path class="st3" d="M188.103,933.264c0,0-31.622-72.616-28.643-113.387c2.978-40.772,2.978-40.772,2.978-40.772l-24.575-25.701
		c0,0-16.702-15.024-34.553-12.822s-68.697-13.845-68.697-13.845"/>
	<path class="st3" d="M183.322,937.618c0,0-31.622-72.616-28.643-113.387c2.978-40.772,2.978-40.772,2.978-40.772l-24.575-25.701
		c0,0-16.702-15.024-34.553-12.822s-68.697-13.845-68.697-13.845"/>
	<path class="st3" d="M204.257,946.484c0,0-41.425-95.641-38.447-136.413c2.978-40.772,2.978-40.772,2.978-40.772l-24.575-25.701
		c0,0-16.702-15.024-34.553-12.822s-84.534-20.402-84.534-20.402"/>
</g>
<polyline class="st0" points="443.44,325.184 443.44,373.151 392.469,373.151 392.073,413.832 368.882,437.023 348.515,416.656 
	348.515,371.288 301.772,371.288 301.772,319.555 301.772,306.107 443.44,315.418 "/>
<g>
	<rect x="354.935" y="344.539" class="st4" width="7.281" height="16.721"/>
	<rect x="339.649" y="344.539" class="st4" width="7.281" height="16.721"/>
	<rect x="324.697" y="344.539" class="st4" width="7.281" height="16.721"/>
	<rect x="409.142" y="344.539" class="st4" width="7.281" height="16.721"/>
	<rect x="393.857" y="344.539" class="st4" width="7.281" height="16.721"/>
	<rect x="378.905" y="344.539" class="st4" width="7.281" height="16.721"/>
	<g>
		<rect x="354.935" y="374.443" class="st4" width="7.281" height="16.721"/>
		<rect x="366.92" y="374.443" class="st4" width="7.281" height="16.721"/>
		<rect x="378.905" y="374.443" class="st4" width="7.281" height="16.721"/>
	</g>
</g>
<path class="st0" d="M292.865,344.406c3.096-1.977,7.012-4.052,11.965-6.144h-20.238v-13.623h-5.421v13.623h-20.238
	c0,0,8.266,1.989,14.965,6.144h-14.965c0,0,5.17,1.245,10.646,3.82h-10.646c0,0,6.044,1.456,11.984,4.475h-9.522
	c0,0,6.319,1.341,12.002,4.126h-12.002c0,0,5.673,1.204,11.102,3.699h-4.933l2.423,1.378h-7.293c0,0,5.57,1.182,10.578,3.637
	h-10.578c0,0,5,1.061,9.785,3.26h-4.348l5.615,3.193c2.846,1.618,5.082,3.943,6.425,6.68l1.221,2.487l1.933-3.37
	c1.283-2.237,3.194-4.147,5.552-5.551l5.776-3.438h-3.388c2.097-1.064,4.575-2.158,7.541-3.26h-8.276
	c2.241-1.181,4.959-2.404,8.276-3.637h-3.467l2.315-1.378h-3.856c2.379-1.207,5.204-2.449,8.568-3.699h-9.396
	c2.542-1.34,5.633-2.728,9.396-4.126h-6.729c2.578-1.462,5.615-2.964,9.191-4.475h-8.011c2.313-1.254,4.967-2.534,8.011-3.82
	H292.865z"/>
<path class="st0" d="M262.114,354.281c2.751-2.911,6.342-6.144,11.026-9.669l-21.405,5.364l-3.611-14.409l-5.733,1.437l3.611,14.409
	l-21.405,5.364c0,0,9.27-0.087,17.456,2.532l-15.828,3.966c0,0,5.798-0.053,12.272,1.218l-11.26,2.822c0,0,6.778-0.062,13.861,1.556
	l-10.071,2.524c0,0,7.039-0.257,13.788,1.183l-12.694,3.181c0,0,6.319-0.231,12.723,0.97l-5.217,1.307l2.928,0.815l-7.713,1.933
	c0,0,6.204-0.226,12.152,1.043l-11.188,2.804c0,0,5.57-0.203,11.214,0.855l-4.598,1.152l6.785,1.888
	c3.439,0.957,6.42,2.823,8.566,5.362l1.95,2.307l1.152-4.077c0.764-2.706,2.279-5.233,4.401-7.342l5.197-5.167l-3.583,0.898
	c1.936-1.681,4.266-3.495,7.111-5.447l-8.753,2.194c2.057-1.843,4.608-3.857,7.789-6.04l-3.667,0.919l2.083-2.07l-4.078,1.022
	c2.196-1.907,4.855-3.969,8.081-6.184l-9.937,2.49c2.334-2.091,5.235-4.378,8.844-6.855l-7.117,1.783
	c2.339-2.229,5.153-4.623,8.535-7.169l-8.473,2.123c2.114-1.939,4.582-3.996,7.461-6.163L262.114,354.281z"/>
<path class="st0" d="M695.87,658.73c2.019,3.015,4.153,6.838,6.327,11.684l-0.438-19.988l13.455-0.295l-0.117-5.354l-13.455,0.295
	l-0.438-19.988c0,0-1.786,8.207-5.744,14.913l-0.324-14.78c0,0-1.118,5.133-3.542,10.597l-0.23-10.514c0,0-1.307,6.001-4.16,11.933
	l-0.206-9.404c0,0-1.187,6.27-3.816,11.943l-0.26-11.854c0,0-1.066,5.629-3.414,11.045l-0.107-4.872l-1.308,2.423l-0.158-7.202
	c0,0-1.047,5.527-3.363,10.526l-0.229-10.448c0,0-0.94,4.961-3.008,9.735l-0.094-4.294l-3.032,5.615
	c-1.537,2.846-3.784,5.104-6.458,6.49l-2.43,1.259l3.37,1.837c2.237,1.219,4.165,3.065,5.602,5.363l3.521,5.63l-0.073-3.346
	c1.096,2.048,2.23,4.471,3.383,7.377l-0.179-8.174c1.215,2.188,2.482,4.846,3.771,8.095l-0.075-3.424l1.411,2.256l-0.083-3.808
	c1.243,2.323,2.531,5.086,3.839,8.382l-0.203-9.279c1.378,2.482,2.816,5.504,4.279,9.19l-0.146-6.645
	c1.5,2.514,3.049,5.481,4.618,8.98l-0.173-7.912c1.289,2.257,2.61,4.851,3.946,7.83L695.87,658.73z"/>
<path class="st0" d="M680.827,689.107c2.659,3.001,5.463,6.809,8.313,11.64l-0.438-19.988l17.86-0.391l-0.117-5.354l-17.86,0.391
	l-0.438-19.988c0,0-2.429,8.221-7.731,14.956l-0.324-14.78c0,0-1.521,5.142-4.778,10.624l-0.23-10.514c0,0-1.778,6.011-5.607,11.964
	l-0.206-9.404c0,0-1.621,6.28-5.15,11.972l-0.26-11.854c0,0-1.455,5.637-4.61,11.071l-0.107-4.872l-1.753,2.433l-0.158-7.202
	c0,0-1.429,5.535-4.539,10.552l-0.229-10.448c0,0-1.283,4.969-4.063,9.758l-0.094-4.294l-4.064,5.638
	c-2.06,2.857-5.059,5.132-8.618,6.537l-3.234,1.277l4.46,1.813c2.96,1.203,5.506,3.035,7.397,5.324l4.632,5.606l-0.073-3.346
	c1.44,2.041,2.928,4.456,4.438,7.354l-0.179-8.174c1.596,2.179,3.259,4.829,4.947,8.069l-0.075-3.424l1.856,2.246l-0.083-3.808
	c1.633,2.315,3.323,5.069,5.035,8.356l-0.203-9.279c1.811,2.472,3.698,5.485,5.613,9.161l-0.146-6.646
	c1.972,2.504,4.007,5.46,6.065,8.949l-0.173-7.912c1.694,2.248,3.429,4.833,5.181,7.802L680.827,689.107z"/>
<path class="st0" d="M683.727,744.206c2.591,3.869,5.329,8.774,8.118,14.992l-0.562-25.648l17.264-0.378l-0.15-6.87l-17.265,0.378
	l-0.562-25.648c0,0-2.292,10.53-7.371,19.135l-0.415-18.965c0,0-1.435,6.587-4.545,13.597l-0.295-13.491c0,0-1.677,7.7-5.338,15.311
	l-0.264-12.067c0,0-1.523,8.046-4.896,15.325l-0.333-15.21c0,0-1.368,7.223-4.38,14.172l-0.137-6.251l-1.678,3.109l-0.202-9.242
	c0,0-1.343,7.091-4.316,13.507l-0.294-13.406c0,0-1.206,6.366-3.86,12.491l-0.121-5.51l-3.89,7.205
	c-1.972,3.651-4.856,6.55-8.287,8.328l-3.118,1.616l4.325,2.357c2.87,1.564,5.344,3.932,7.189,6.882l4.518,7.224l-0.094-4.293
	c1.406,2.628,2.862,5.737,4.341,9.466l-0.23-10.488c1.558,2.807,3.185,6.218,4.839,10.387l-0.096-4.393l1.81,2.895l-0.107-4.886
	c1.595,2.981,3.248,6.527,4.926,10.755l-0.261-11.907c1.768,3.185,3.614,7.063,5.49,11.792l-0.187-8.527
	c1.924,3.227,3.912,7.034,5.926,11.523l-0.222-10.153c1.654,2.896,3.349,6.224,5.063,10.047L683.727,744.206z"/>
<path class="st0" d="M251.737,931.793c-4.547-1.003-9.916-2.653-16.231-5.217l18.14,18.14l-12.211,12.211l4.859,4.859l12.211-12.211
	l18.14,18.14c0,0-5.626-9.192-7.907-18.92l13.413,13.413c0,0-3.518-5.75-6.118-12.966l9.542,9.542c0,0-4.112-6.722-6.731-14.752
	l8.535,8.535c0,0-4.463-6.866-7.059-14.456l10.758,10.758c0,0-4.006-6.164-6.635-13.267l4.421,4.421l-0.937-3.407l6.536,6.536
	c0,0-3.933-6.052-6.222-12.742l9.482,9.482c0,0-3.531-5.433-5.848-11.693l3.897,3.897L293.6,924.2
	c-1.1-4.001-1.021-8.089,0.228-11.746l1.135-3.324l-4.754,1.288c-3.154,0.855-6.58,0.854-9.952-0.001l-8.259-2.095l3.036,3.036
	c-2.833-0.926-6.035-2.166-9.681-3.836l7.418,7.418c-3.067-0.95-6.6-2.29-10.678-4.158l3.107,3.107l-3.309-0.84l3.456,3.456
	c-3.214-1.051-6.859-2.469-10.995-4.364l8.422,8.422c-3.479-1.078-7.494-2.604-12.12-4.723l6.031,6.031
	c-3.621-1-7.689-2.376-12.249-4.227l7.181,7.181c-3.197-0.949-6.723-2.181-10.604-3.757L251.737,931.793z"/>
<g>
	
		<rect x="468.354" y="847.204" transform="matrix(0.7567 -0.6538 0.6538 0.7567 -476.5206 540.8129)" class="st0" width="39.87" height="126.757"/>
	
		<rect x="516.045" y="860.708" transform="matrix(0.7567 -0.6538 0.6538 0.7567 -451.2871 577.7037)" class="st0" width="68.842" height="68.842"/>
	
		<rect x="561.125" y="779.525" transform="matrix(0.7567 -0.6538 0.6538 0.7567 -402.4008 588.0684)" class="st0" width="55.417" height="110.22"/>
	<g>
		
			<rect x="443.772" y="871.491" transform="matrix(0.7567 -0.6538 0.6538 0.7567 -465.7226 506.2067)" class="st4" width="6.848" height="14.565"/>
		
			<rect x="452.303" y="864.12" transform="matrix(0.7567 -0.6538 0.6538 0.7567 -458.828 509.9904)" class="st4" width="6.848" height="14.565"/>
		
			<rect x="460.833" y="856.749" transform="matrix(0.7567 -0.6538 0.6538 0.7567 -451.9334 513.774)" class="st4" width="6.848" height="14.565"/>
	</g>
	<g>
		
			<rect x="456.715" y="886.47" transform="matrix(0.7567 -0.6538 0.6538 0.7567 -472.3665 518.3132)" class="st4" width="6.848" height="14.565"/>
		
			<rect x="465.245" y="879.099" transform="matrix(0.7567 -0.6538 0.6538 0.7567 -465.4719 522.0969)" class="st4" width="6.848" height="14.565"/>
		
			<rect x="473.776" y="871.728" transform="matrix(0.7567 -0.6538 0.6538 0.7567 -458.5773 525.8806)" class="st4" width="6.848" height="14.565"/>
	</g>
	<g>
		
			<rect x="469.869" y="901.694" transform="matrix(0.7567 -0.6538 0.6538 0.7567 -479.1192 530.6181)" class="st4" width="6.848" height="14.565"/>
		
			<rect x="478.4" y="894.323" transform="matrix(0.7567 -0.6538 0.6538 0.7567 -472.2246 534.4018)" class="st4" width="6.848" height="14.565"/>
		
			<rect x="486.93" y="886.953" transform="matrix(0.7567 -0.6538 0.6538 0.7567 -465.33 538.1854)" class="st4" width="6.848" height="14.565"/>
	</g>
	<g>
		
			<rect x="487.241" y="921.799" transform="matrix(0.7567 -0.6538 0.6538 0.7567 -488.0367 546.8676)" class="st4" width="6.848" height="14.565"/>
		
			<rect x="495.771" y="914.428" transform="matrix(0.7567 -0.6538 0.6538 0.7567 -481.1421 550.6513)" class="st4" width="6.848" height="14.565"/>
		
			<rect x="504.302" y="907.058" transform="matrix(0.7567 -0.6538 0.6538 0.7567 -474.2475 554.4349)" class="st4" width="6.848" height="14.565"/>
	</g>
	<g>
		
			<rect x="512.916" y="888.418" transform="matrix(0.7567 -0.6538 0.6538 0.7567 -459.0616 557.9589)" class="st4" width="14.273" height="14.565"/>
		
			<rect x="530.695" y="873.057" transform="matrix(0.7567 -0.6538 0.6538 0.7567 -444.6922 565.8445)" class="st4" width="14.273" height="14.565"/>
		
			<rect x="548.474" y="857.695" transform="matrix(0.7567 -0.6538 0.6538 0.7567 -430.3229 573.7302)" class="st4" width="14.273" height="14.565"/>
	</g>
	<g>
		
			<rect x="529.615" y="908.372" transform="matrix(0.7567 -0.6538 0.6538 0.7567 -468.0442 573.7314)" class="st4" width="14.273" height="14.565"/>
		
			<rect x="547.393" y="893.011" transform="matrix(0.7567 -0.6538 0.6538 0.7567 -453.6748 581.6171)" class="st4" width="14.273" height="14.565"/>
		
			<rect x="565.172" y="877.649" transform="matrix(0.7567 -0.6538 0.6538 0.7567 -439.3054 589.5029)" class="st4" width="14.273" height="14.565"/>
	</g>
	
		<rect x="535.783" y="798.676" transform="matrix(0.7567 -0.6538 0.6538 0.7567 -387.3544 560.885)" class="st4" width="48.109" height="4.306"/>
	
		<rect x="540.422" y="804.292" transform="matrix(0.7567 -0.6538 0.6538 0.7567 -389.8973 565.2845)" class="st4" width="48.109" height="4.306"/>
	
		<rect x="545.112" y="809.72" transform="matrix(0.7567 -0.6538 0.6538 0.7567 -392.3048 569.6714)" class="st4" width="48.109" height="4.306"/>
	
		<rect x="550.761" y="816.258" transform="matrix(0.7567 -0.6538 0.6538 0.7567 -395.2048 574.9557)" class="st4" width="48.109" height="4.306"/>
	
		<rect x="557.052" y="823.292" transform="matrix(0.7567 -0.6538 0.6538 0.7567 -398.2727 580.7805)" class="st4" width="48.109" height="4.306"/>
	
		<rect x="562.357" y="829.432" transform="matrix(0.7567 -0.6538 0.6538 0.7567 -400.9959 585.7428)" class="st4" width="48.109" height="4.306"/>
	
		<rect x="567.118" y="834.942" transform="matrix(0.7567 -0.6538 0.6538 0.7567 -403.4401 590.1965)" class="st4" width="48.109" height="4.306"/>
	
		<rect x="571.88" y="840.453" transform="matrix(0.7567 -0.6538 0.6538 0.7567 -405.8842 594.6501)" class="st4" width="48.109" height="4.306"/>
	
		<rect x="577.958" y="847.488" transform="matrix(0.7567 -0.6538 0.6538 0.7567 -409.0047 600.3364)" class="st4" width="48.109" height="4.306"/>
	
		<rect x="581.795" y="852.175" transform="matrix(0.7567 -0.6538 0.6538 0.7567 -411.1356 603.9849)" class="st4" width="48.109" height="4.306"/>
	
		<rect x="587.359" y="858.614" transform="matrix(0.7567 -0.6538 0.6538 0.7567 -413.9918 609.1896)" class="st4" width="48.109" height="4.306"/>
</g>
<g>
	<polyline class="st0" points="117.753,864.955 145.807,836.9 179.636,843.927 230.254,894.545 233.543,926.168 206.348,953.363 	
		"/>
	<g>
		
			<rect x="177.792" y="880.24" transform="matrix(0.7071 0.7071 -0.7071 0.7071 684.1572 132.2194)" class="st4" width="9.367" height="23.441"/>
		
			<rect x="146.782" y="851.606" transform="matrix(0.7071 0.7071 -0.7071 0.7071 656.8719 145.4287)" class="st4" width="12.212" height="28.046"/>
		
			<rect x="188.696" y="891.143" transform="matrix(0.7071 0.7071 -0.7071 0.7071 695.0607 127.703)" class="st4" width="9.367" height="23.441"/>
		
			<rect x="199.599" y="902.047" transform="matrix(0.7071 0.7071 -0.7071 0.7071 705.9642 123.1866)" class="st4" width="9.367" height="23.441"/>
	</g>
</g>
<g>
	<path class="st4" d="M378.076,633.932c0,0-1.5,1.137-2.011,1.501c-0.307,0.218-0.837,0.828-1.145,1.071
		c-2.358,1.856-3.459,2.526-6.269,2.526h-6.948c-2.81,0-4.962-2.024-4.962-4.673v-42.484c0-2.649,2.151-4.673,4.962-4.673h6.948
		c2.811,0,4.962,2.024,4.962,4.673v23.678l51.225-49.491c0.827-0.781,2.316-1.402,3.64-1.402h9.426c3.308,0,5.294,2.024,5.294,4.36
		c0,1.246-0.497,2.492-1.819,3.739l-51.393,49.806"/>
	<path class="st0" d="M373.612,652.197v21.466c0,2.005-2.151,3.538-4.962,3.538h-6.948c-2.81,0-4.962-1.532-4.962-3.538v-27.361
		c0-2.005,2.151-3.538,4.962-3.538h6.948c2.811,0,4.962,1.532,4.962,3.538"/>
	<g>
		<path class="st0" d="M393.24,631.715l32.087,37.696c0.83,1.09,1.324,2.183,1.324,3.273c0,2.492-2.151,4.516-5.291,4.516h-8.767
			c-1.324,0-2.978-0.778-3.805-1.871l-27.457-32.246"/>
		<path class="st0" d="M405.628,670.078l-24.128-26.906c-1.768-1.972-1.583-4.857,0.424-6.656l4.962-4.45
			c2.007-1.8,4.895-1.671,6.663,0.301"/>
	</g>
	<path class="st0" d="M237.836,677.971h-5.129c-14.72,0-28.449-9.66-28.449-25.549v-1.712c0-2.649,2.151-4.676,4.965-4.676h6.945
		c2.813,0,4.962,2.027,4.962,4.676v1.712c0,5.297,4.135,9.657,11.577,9.657h5.129c7.443,0,11.907-4.36,11.907-9.657
		c0-11.372-43.832-4.985-43.832-32.246c0-16.045,14.061-24.768,28.617-24.768h1.819c14.72,0,28.449,9.501,28.449,25.546
		c0,2.649-2.151,4.676-4.962,4.676h-6.948c-2.811,0-4.962-2.027-4.962-4.676c0-5.607-4.135-9.657-11.577-9.657h-1.819
		c-7.775,0-11.745,3.739-11.745,8.88c0,11.216,43.832,5.141,43.832,32.246C266.615,668.311,252.556,677.971,237.836,677.971z"/>
	<path class="st0" d="M492.542,639.96c0,2.649-2.151,4.673-4.962,4.673h-38.705v6.387c0,6.075,5.127,11.06,11.577,11.06h3.64
		c8.27,0,11.08-7.321,11.248-8.255c0.659-2.492,3.473-3.895,6.118-3.27l6.616,1.399c2.649,0.625,4.303,3.585,3.64,5.922
		c-3.473,11.682-14.556,20.096-27.622,20.096h-3.64c-15.712,0-28.449-12.153-28.449-26.951v-28.663
		c0-14.799,12.737-26.948,28.449-26.948h3.64c15.712,0,28.449,12.15,28.449,26.948V639.96z M475.835,622.357
		c0-6.075-5.291-11.06-11.742-11.06h-3.64c-6.451,0-11.577,4.985-11.577,11.06v6.387h26.96V622.357z"/>
	<path class="st0" d="M502.628,676.256c-2.646,0-4.962-2.024-4.962-4.673v-6.543c0-2.649,2.316-4.673,4.962-4.673h8.602v-38.011
		c0-14.174,12.24-26.948,28.779-26.948h3.308c16.539,0,28.614,12.774,28.614,26.948v11.06c0,2.649-2.151,4.676-4.962,4.676h-6.948
		c-2.811,0-4.962-2.027-4.962-4.676v-11.06c0-6.387-5.789-11.06-11.742-11.06h-3.308c-6.286,0-11.91,4.673-11.91,11.06v38.011
		h25.306c2.813,0,4.962,2.024,4.962,4.673v6.543c0,2.649-2.148,4.673-4.962,4.673H502.628z"/>
	<path class="st0" d="M329.164,673.091c-5.947,3.484-14.888,4.109-21.672,4.109h-3.308c-14.058,0-25.141-9.504-25.141-22.276v-3.273
		c0-15.576,13.234-20.408,24.314-23.522c2.813-0.778,19.353-3.114,19.353-8.88c0-5.453-4.135-8.724-11.577-8.724h-1.819
		c-6.451,0-11.745,4.829-11.745,11.06c0,2.805-2.148,4.673-4.962,4.673h-6.945c-2.813,0-4.965-1.868-4.965-4.673
		c0-14.955,12.737-26.948,28.617-26.948h1.819c14.72,0,28.449,9.501,28.449,25.393c0,0,2.315,28.793,0,38.008
		C338.406,662.718,336.982,668.511,329.164,673.091z M304.184,582.019c0,2.649-2.148,4.673-4.962,4.673h-11.907
		c-2.813,0-4.962-2.024-4.962-4.673v-12.775c0-2.649,2.148-4.673,4.962-4.673h11.907c2.813,0,4.962,2.024,4.962,4.673V582.019z
		 M322.71,636.385c-7.607,3.585-13.067,3.895-19.353,6.387c-4.962,2.027-7.443,5.609-7.443,8.88v2.492
		c0,2.961,2.481,7.165,8.437,7.165h3.14c8.272,0,15.218-4.516,15.218-11.216V636.385z M336.274,582.019
		c0,2.649-2.151,4.673-4.962,4.673h-11.91c-2.811,0-4.962-2.024-4.962-4.673v-12.775c0-2.649,2.151-4.673,4.962-4.673h11.91
		c2.81,0,4.962,2.024,4.962,4.673V582.019z"/>
</g>
</svg>