<!-- Generator: Adobe Illustrator 22.0.1, SVG Export Plug-In  -->
<svg version="1.1"
	 xmlns="http://www.w3.org/2000/svg" xmlns:xlink="http://www.w3.org/1999/xlink" xmlns:a="http://ns.adobe.com/AdobeSVGViewerExtensions/3.0/"
	 x="0px" y="0px" width="118.343px" height="118.343px" viewBox="0 0 118.343 118.343"
	 style="enable-background:new 0 0 118.343 118.343;" xml:space="preserve">
<style type="text/css">
	.st0{fill:#379EC8;}
	.st1{fill:#FFFFFF;}
</style>
<defs>
</defs>
<g>
	<circle class="st0" cx="59.171" cy="59.171" r="59.171"/>
	<g>
		<path class="st1" d="M86.328,36.891c-0.942-1.43-1.379-2.986-1.01-4.724c0.671-3.154,3.743-5.299,6.805-4.735
			c3.278,0.603,5.529,3.649,5.004,6.773c-0.561,3.339-3.583,5.573-6.871,5.114c-0.286-0.04-0.745,0.059-0.888,0.261
			c-3.684,5.212-7.337,10.445-10.994,15.675c-0.111,0.159-0.216,0.322-0.343,0.513c0.958,1.469,1.408,3.047,1.021,4.811
			c-0.551,2.512-2.616,4.413-5.183,4.736c-2.405,0.303-4.882-0.994-5.982-3.236c-0.298-0.608-0.639-0.749-1.261-0.746
			c-4.997,0.024-9.995,0.022-14.993,0.001c-0.536-0.002-0.822,0.131-1.073,0.642c-1.198,2.441-3.679,3.678-6.419,3.304
			c-0.238-0.033-0.62,0.079-0.745,0.257c-3.783,5.379-7.541,10.775-11.303,16.168c-0.014,0.021-0.013,0.052-0.02,0.078
			c1.746,3.117,1.379,6.078-1.004,8.12c-2.105,1.804-5.15,1.915-7.394,0.268c-2.248-1.65-3.07-4.579-1.999-7.127
			c1.079-2.568,3.774-4.065,6.462-3.638c0.278,0.044,0.732-0.089,0.88-0.298c3.701-5.234,7.371-10.489,11.047-15.74
			c0.095-0.136,0.184-0.277,0.295-0.445c-0.939-1.442-1.404-2.994-1.037-4.729c0.54-2.555,2.532-4.431,5.116-4.806
			c2.406-0.349,4.914,0.963,6.05,3.253c0.281,0.566,0.587,0.724,1.192,0.721c5.025-0.026,10.051-0.023,15.076-0.003
			c0.564,0.002,0.861-0.14,1.13-0.686c1.193-2.421,3.622-3.605,6.356-3.227c0.235,0.033,0.611-0.104,0.742-0.289
			c3.785-5.377,7.547-10.771,11.311-16.163C86.311,36.975,86.312,36.945,86.328,36.891z"/>
	</g>
</g>
</svg>