<!-- Generator: Adobe Illustrator 22.0.1, SVG Export Plug-In  -->
<svg version="1.1"
	 xmlns="http://www.w3.org/2000/svg" xmlns:xlink="http://www.w3.org/1999/xlink" xmlns:a="http://ns.adobe.com/AdobeSVGViewerExtensions/3.0/"
	 x="0px" y="0px" width="340.059px" height="340.059px" viewBox="0 0 340.059 340.059"
	 style="enable-background:new 0 0 340.059 340.059;" xml:space="preserve">
<style type="text/css">
	.st0{fill:url(#SVGID_1_);}
	.st1{fill:none;stroke:#F9D50A;stroke-width:5;stroke-miterlimit:10;}
	.st2{fill:#F2F2F2;}
	.st3{fill:#FFFFFF;}
	.st4{fill:url(#SVGID_2_);}
</style>
<defs>
</defs>
<linearGradient id="SVGID_1_" gradientUnits="userSpaceOnUse" x1="168.9621" y1="15.755" x2="168.9621" y2="324.304">
	<stop  offset="0" style="stop-color:#379EC8;stop-opacity:0.7"/>
	<stop  offset="0.1111" style="stop-color:#379EC8;stop-opacity:0.7335"/>
	<stop  offset="0.9967" style="stop-color:#379EC8"/>
</linearGradient>
<circle class="st0" cx="168.962" cy="170.03" r="154.275"/>
<circle class="st1" cx="170.03" cy="170.03" r="167.53"/>
<g>
	<path class="st2" d="M96.961,146.764V91.916H104v22.523h27.645V91.916h7.038v54.849h-7.038v-25.853H104v25.853H96.961z"/>
	<path class="st2" d="M175.941,133.968l6.747,0.861c-1.064,4.065-3.035,7.221-5.913,9.465c-2.879,2.245-6.555,3.367-11.028,3.367
		c-5.636,0-10.104-1.789-13.405-5.368s-4.952-8.599-4.952-15.06c0-6.684,1.669-11.872,5.007-15.563
		c3.337-3.691,7.666-5.537,12.987-5.537c5.151,0,9.36,1.809,12.625,5.425c3.265,3.617,4.897,8.705,4.897,15.265
		c0,0.399-0.013,0.998-0.036,1.796h-28.732c0.241,4.365,1.438,7.707,3.592,10.027c2.152,2.319,4.837,3.479,8.054,3.479
		c2.395,0,4.438-0.648,6.131-1.945C173.606,138.882,174.949,136.812,175.941,133.968z M154.5,123.082h21.514
		c-0.29-3.342-1.113-5.849-2.467-7.521c-2.081-2.594-4.777-3.891-8.091-3.891c-2.999,0-5.521,1.035-7.563,3.105
		C155.848,116.846,154.717,119.615,154.5,123.082z"/>
	<path class="st2" d="M190.596,162.066l-0.726-6.322c1.427,0.398,2.672,0.599,3.736,0.599c1.451,0,2.612-0.25,3.483-0.749
		c0.87-0.499,1.583-1.197,2.14-2.095c0.411-0.673,1.076-2.345,1.996-5.014c0.12-0.374,0.313-0.923,0.58-1.646l-14.62-39.809h7.038
		l8.018,23.01c1.039,2.918,1.971,5.986,2.793,9.203c0.75-3.092,1.645-6.11,2.685-9.054l8.235-23.159h6.53l-14.656,40.406
		c-1.572,4.365-2.794,7.371-3.664,9.018c-1.161,2.219-2.491,3.847-3.991,4.882s-3.289,1.553-5.369,1.553
		C193.546,162.889,192.144,162.615,190.596,162.066z"/>
	<path class="st2" d="M231.518,133.146l-1.995-29.07v-12.16h8.09v12.16l-1.886,29.07H231.518z M229.813,146.764v-7.67h7.51v7.67
		H229.813z"/>
</g>
<g>
	<path class="st3" d="M74.015,214.981v-18.96h12.237v2.237h-9.837v5.872h8.513v2.237h-8.513v8.613H74.015z"/>
	<path class="st3" d="M89.098,198.699v-2.678h2.228v2.678H89.098z M89.098,214.981v-13.735h2.228v13.735H89.098z"/>
	<path class="st3" d="M94.716,214.981v-13.735h2.004v1.953c0.965-1.509,2.359-2.263,4.183-2.263c0.792,0,1.52,0.148,2.184,0.446
		c0.664,0.297,1.161,0.688,1.491,1.17c0.33,0.483,0.561,1.057,0.692,1.721c0.083,0.431,0.124,1.186,0.124,2.263v8.445h-2.228v-8.354
		c0-0.948-0.086-1.658-0.26-2.128c-0.173-0.47-0.48-0.845-0.922-1.125s-0.959-0.42-1.553-0.42c-0.948,0-1.768,0.314-2.456,0.944
		c-0.688,0.629-1.033,1.823-1.033,3.582v7.501H94.716z"/>
	<path class="st3" d="M117.334,214.981v-1.733c-0.833,1.363-2.058,2.044-3.675,2.044c-1.048,0-2.011-0.302-2.889-0.905
		c-0.879-0.604-1.56-1.446-2.042-2.528s-0.724-2.326-0.724-3.731c0-1.371,0.219-2.614,0.655-3.731
		c0.438-1.116,1.094-1.972,1.968-2.567c0.874-0.595,1.852-0.892,2.933-0.892c0.792,0,1.497,0.175,2.116,0.523
		c0.618,0.349,1.121,0.804,1.509,1.364v-6.803h2.215v18.96H117.334z M110.294,208.127c0,1.759,0.354,3.074,1.064,3.944
		c0.709,0.871,1.546,1.307,2.512,1.307c0.973,0,1.8-0.416,2.48-1.248s1.021-2.102,1.021-3.809c0-1.88-0.346-3.26-1.039-4.139
		c-0.692-0.88-1.547-1.319-2.562-1.319c-0.989,0-1.816,0.422-2.48,1.268C110.626,204.975,110.294,206.307,110.294,208.127z"/>
	<path class="st3" d="M129.843,220.271l-0.247-2.186c0.486,0.137,0.911,0.206,1.274,0.206c0.495,0,0.891-0.086,1.188-0.259
		c0.297-0.172,0.54-0.413,0.73-0.724c0.14-0.233,0.366-0.811,0.681-1.733c0.041-0.129,0.106-0.318,0.197-0.568l-4.986-13.762h2.4
		l2.734,7.954c0.354,1.009,0.673,2.069,0.953,3.182c0.256-1.069,0.561-2.112,0.916-3.13l2.809-8.006h2.227l-4.998,13.969
		c-0.537,1.508-0.953,2.547-1.25,3.116c-0.396,0.768-0.85,1.33-1.361,1.688c-0.512,0.358-1.122,0.537-1.831,0.537
		C130.85,220.555,130.372,220.461,129.843,220.271z"/>
	<path class="st3" d="M141.785,208.114c0-2.544,0.676-4.428,2.029-5.651c1.13-1.018,2.507-1.526,4.132-1.526
		c1.807,0,3.283,0.618,4.43,1.855s1.721,2.946,1.721,5.128c0,1.768-0.254,3.158-0.762,4.171c-0.507,1.014-1.245,1.8-2.215,2.36
		c-0.969,0.561-2.027,0.841-3.174,0.841c-1.839,0-3.326-0.616-4.46-1.85C142.351,212.209,141.785,210.433,141.785,208.114z
		 M144.074,208.114c0,1.759,0.366,3.075,1.101,3.95c0.734,0.876,1.658,1.313,2.771,1.313c1.105,0,2.025-0.44,2.76-1.319
		s1.102-2.22,1.102-4.022c0-1.698-0.37-2.985-1.107-3.86c-0.738-0.875-1.656-1.312-2.754-1.312c-1.113,0-2.037,0.436-2.771,1.307
		C144.44,205.04,144.074,206.355,144.074,208.114z"/>
	<path class="st3" d="M165.318,214.981v-2.018c-1.022,1.552-2.413,2.328-4.17,2.328c-0.775,0-1.499-0.155-2.171-0.466
		c-0.673-0.311-1.172-0.7-1.498-1.17c-0.325-0.471-0.555-1.046-0.687-1.727c-0.091-0.457-0.136-1.182-0.136-2.173v-8.511h2.227
		v7.618c0,1.216,0.046,2.035,0.137,2.457c0.14,0.612,0.437,1.093,0.891,1.442c0.454,0.349,1.015,0.523,1.683,0.523
		c0.669,0,1.295-0.179,1.881-0.537c0.586-0.357,1-0.845,1.244-1.461c0.243-0.616,0.364-1.511,0.364-2.684v-7.359h2.228v13.735
		H165.318z"/>
	<path class="st3" d="M170.775,214.981v-13.735h2.005v2.083c0.511-0.975,0.983-1.617,1.417-1.927
		c0.433-0.311,0.909-0.466,1.429-0.466c0.751,0,1.514,0.25,2.289,0.75l-0.768,2.159c-0.544-0.336-1.089-0.504-1.633-0.504
		c-0.487,0-0.924,0.153-1.312,0.459c-0.388,0.307-0.664,0.73-0.829,1.273c-0.247,0.828-0.371,1.733-0.371,2.717v7.19H170.775z"/>
	<path class="st3" d="M186.601,214.981v-18.96h8.043c1.616,0,2.846,0.17,3.687,0.511c0.842,0.341,1.514,0.942,2.018,1.805
		c0.503,0.862,0.755,1.814,0.755,2.858c0,1.345-0.417,2.479-1.25,3.4c-0.833,0.924-2.12,1.51-3.86,1.76
		c0.635,0.318,1.117,0.633,1.447,0.943c0.701,0.673,1.365,1.514,1.992,2.522l3.155,5.16h-3.019l-2.401-3.944
		c-0.701-1.139-1.278-2.009-1.731-2.613c-0.454-0.603-0.86-1.025-1.219-1.267c-0.359-0.241-0.725-0.409-1.096-0.505
		c-0.272-0.061-0.718-0.09-1.336-0.09h-2.784v8.419H186.601z M189.002,204.389h5.16c1.097,0,1.954-0.118,2.573-0.356
		c0.619-0.236,1.089-0.616,1.41-1.138c0.322-0.521,0.483-1.089,0.483-1.7c0-0.896-0.312-1.635-0.935-2.212s-1.606-0.866-2.951-0.866
		h-5.741V204.389z"/>
	<path class="st3" d="M213.154,213.287c-0.825,0.733-1.619,1.25-2.382,1.552s-1.582,0.453-2.456,0.453
		c-1.443,0-2.553-0.368-3.328-1.106c-0.775-0.736-1.163-1.679-1.163-2.825c0-0.673,0.146-1.287,0.438-1.843
		c0.293-0.557,0.677-1.003,1.151-1.339c0.474-0.336,1.008-0.591,1.603-0.763c0.437-0.121,1.097-0.237,1.979-0.35
		c1.798-0.225,3.122-0.491,3.972-0.802c0.008-0.319,0.013-0.521,0.013-0.608c0-0.947-0.211-1.616-0.631-2.004
		c-0.569-0.526-1.415-0.789-2.537-0.789c-1.048,0-1.821,0.191-2.32,0.575s-0.868,1.063-1.107,2.037l-2.178-0.311
		c0.198-0.974,0.524-1.761,0.978-2.36c0.454-0.599,1.109-1.061,1.968-1.384c0.857-0.323,1.852-0.484,2.982-0.484
		c1.121,0,2.033,0.138,2.734,0.413c0.701,0.276,1.217,0.623,1.546,1.041c0.33,0.419,0.562,0.947,0.693,1.585
		c0.074,0.396,0.111,1.112,0.111,2.146v3.104c0,2.164,0.048,3.533,0.143,4.105c0.095,0.574,0.282,1.123,0.562,1.649h-2.326
		C213.369,214.499,213.22,213.933,213.154,213.287z M212.968,208.088c-0.809,0.346-2.021,0.639-3.638,0.88
		c-0.916,0.138-1.563,0.293-1.942,0.466c-0.38,0.172-0.673,0.424-0.879,0.756s-0.31,0.701-0.31,1.106
		c0,0.62,0.225,1.138,0.675,1.552c0.449,0.414,1.107,0.621,1.974,0.621c0.857,0,1.621-0.196,2.289-0.589s1.158-0.929,1.473-1.61
		c0.238-0.525,0.358-1.302,0.358-2.328V208.088z"/>
	<path class="st3" d="M227.198,214.981v-1.733c-0.833,1.363-2.058,2.044-3.675,2.044c-1.048,0-2.011-0.302-2.889-0.905
		c-0.879-0.604-1.56-1.446-2.042-2.528s-0.724-2.326-0.724-3.731c0-1.371,0.219-2.614,0.655-3.731
		c0.438-1.116,1.094-1.972,1.968-2.567c0.874-0.595,1.852-0.892,2.933-0.892c0.792,0,1.497,0.175,2.116,0.523
		c0.618,0.349,1.121,0.804,1.509,1.364v-6.803h2.215v18.96H227.198z M220.158,208.127c0,1.759,0.354,3.074,1.064,3.944
		c0.709,0.871,1.546,1.307,2.512,1.307c0.973,0,1.8-0.416,2.48-1.248s1.021-2.102,1.021-3.809c0-1.88-0.346-3.26-1.039-4.139
		c-0.692-0.88-1.547-1.319-2.562-1.319c-0.989,0-1.816,0.422-2.48,1.268C220.49,204.975,220.158,206.307,220.158,208.127z"/>
	<path class="st3" d="M231.937,208.114c0-2.544,0.676-4.428,2.029-5.651c1.13-1.018,2.507-1.526,4.132-1.526
		c1.807,0,3.283,0.618,4.43,1.855s1.721,2.946,1.721,5.128c0,1.768-0.254,3.158-0.762,4.171c-0.507,1.014-1.245,1.8-2.215,2.36
		c-0.969,0.561-2.027,0.841-3.174,0.841c-1.839,0-3.326-0.616-4.46-1.85C232.503,212.209,231.937,210.433,231.937,208.114z
		 M234.226,208.114c0,1.759,0.366,3.075,1.101,3.95c0.734,0.876,1.658,1.313,2.771,1.313c1.105,0,2.025-0.44,2.76-1.319
		s1.102-2.22,1.102-4.022c0-1.698-0.37-2.985-1.107-3.86c-0.738-0.875-1.656-1.312-2.754-1.312c-1.113,0-2.037,0.436-2.771,1.307
		C234.592,205.04,234.226,206.355,234.226,208.114z"/>
	<path class="st3" d="M246.86,214.981v-13.735h2.004v1.953c0.965-1.509,2.359-2.263,4.183-2.263c0.792,0,1.52,0.148,2.184,0.446
		c0.664,0.297,1.161,0.688,1.491,1.17c0.33,0.483,0.561,1.057,0.692,1.721c0.083,0.431,0.124,1.186,0.124,2.263v8.445h-2.228v-8.354
		c0-0.948-0.086-1.658-0.26-2.128c-0.173-0.47-0.48-0.845-0.922-1.125s-0.959-0.42-1.553-0.42c-0.948,0-1.768,0.314-2.456,0.944
		c-0.688,0.629-1.033,1.823-1.033,3.582v7.501H246.86z"/>
	<path class="st3" d="M86.11,237.368l2.203-0.362c0.123,0.923,0.468,1.63,1.033,2.121c0.564,0.492,1.354,0.737,2.369,0.737
		c1.022,0,1.781-0.218,2.276-0.653c0.495-0.435,0.743-0.945,0.743-1.532c0-0.525-0.219-0.939-0.656-1.241
		c-0.306-0.207-1.064-0.47-2.276-0.789c-1.634-0.432-2.766-0.804-3.396-1.119c-0.632-0.314-1.11-0.75-1.436-1.306
		c-0.326-0.557-0.489-1.171-0.489-1.843c0-0.612,0.135-1.18,0.402-1.701c0.269-0.521,0.633-0.955,1.095-1.3
		c0.347-0.267,0.819-0.493,1.417-0.679c0.599-0.186,1.239-0.278,1.924-0.278c1.031,0,1.937,0.155,2.717,0.466
		c0.779,0.311,1.354,0.73,1.726,1.261s0.627,1.239,0.768,2.128l-2.178,0.311c-0.1-0.707-0.386-1.26-0.86-1.656
		s-1.145-0.595-2.011-0.595c-1.022,0-1.753,0.177-2.189,0.53c-0.438,0.354-0.656,0.768-0.656,1.242c0,0.302,0.091,0.573,0.272,0.814
		c0.181,0.25,0.466,0.457,0.854,0.621c0.223,0.086,0.879,0.284,1.968,0.595c1.575,0.439,2.674,0.8,3.297,1.079
		c0.623,0.281,1.111,0.688,1.467,1.223c0.354,0.535,0.532,1.198,0.532,1.992c0,0.775-0.217,1.506-0.65,2.191
		c-0.433,0.686-1.058,1.216-1.874,1.591s-1.741,0.562-2.771,0.562c-1.708,0-3.009-0.37-3.904-1.112
		C86.928,239.924,86.358,238.826,86.11,237.368z"/>
	<path class="st3" d="M108.667,237.045l2.302,0.298c-0.363,1.405-1.036,2.496-2.018,3.272c-0.981,0.775-2.235,1.163-3.761,1.163
		c-1.923,0-3.446-0.618-4.572-1.855s-1.689-2.973-1.689-5.206c0-2.311,0.569-4.104,1.708-5.38c1.138-1.275,2.614-1.914,4.43-1.914
		c1.757,0,3.192,0.626,4.306,1.876s1.671,3.009,1.671,5.276c0,0.138-0.005,0.345-0.013,0.62h-9.8c0.082,1.51,0.49,2.664,1.225,3.467
		c0.734,0.802,1.65,1.202,2.747,1.202c0.816,0,1.514-0.224,2.091-0.672C107.871,238.744,108.328,238.028,108.667,237.045z
		 M101.354,233.281h7.337c-0.099-1.154-0.379-2.021-0.841-2.6c-0.71-0.896-1.63-1.345-2.76-1.345c-1.022,0-1.883,0.358-2.58,1.073
		C101.813,231.126,101.428,232.083,101.354,233.281z"/>
	<path class="st3" d="M113.765,241.468v-13.735h2.004v1.953c0.965-1.509,2.359-2.264,4.183-2.264c0.792,0,1.52,0.149,2.184,0.446
		c0.664,0.298,1.161,0.688,1.491,1.17c0.33,0.483,0.561,1.057,0.692,1.721c0.083,0.432,0.124,1.186,0.124,2.264v8.445h-2.228v-8.355
		c0-0.948-0.086-1.657-0.26-2.127c-0.173-0.471-0.48-0.846-0.922-1.125c-0.441-0.28-0.959-0.421-1.553-0.421
		c-0.948,0-1.768,0.315-2.456,0.944s-1.033,1.823-1.033,3.582v7.502H113.765z"/>
	<path class="st3" d="M126.967,237.368l2.203-0.362c0.123,0.923,0.468,1.63,1.033,2.121c0.564,0.492,1.354,0.737,2.369,0.737
		c1.022,0,1.781-0.218,2.276-0.653c0.495-0.435,0.743-0.945,0.743-1.532c0-0.525-0.219-0.939-0.656-1.241
		c-0.306-0.207-1.064-0.47-2.276-0.789c-1.634-0.432-2.766-0.804-3.396-1.119c-0.632-0.314-1.11-0.75-1.436-1.306
		c-0.326-0.557-0.489-1.171-0.489-1.843c0-0.612,0.135-1.18,0.402-1.701c0.269-0.521,0.633-0.955,1.095-1.3
		c0.347-0.267,0.819-0.493,1.417-0.679c0.599-0.186,1.239-0.278,1.924-0.278c1.031,0,1.937,0.155,2.717,0.466
		c0.779,0.311,1.354,0.73,1.726,1.261s0.627,1.239,0.768,2.128l-2.178,0.311c-0.1-0.707-0.386-1.26-0.86-1.656
		s-1.145-0.595-2.011-0.595c-1.022,0-1.753,0.177-2.189,0.53c-0.438,0.354-0.656,0.768-0.656,1.242c0,0.302,0.091,0.573,0.272,0.814
		c0.181,0.25,0.466,0.457,0.854,0.621c0.223,0.086,0.879,0.284,1.968,0.595c1.575,0.439,2.674,0.8,3.297,1.079
		c0.623,0.281,1.111,0.688,1.467,1.223c0.354,0.535,0.532,1.198,0.532,1.992c0,0.775-0.217,1.506-0.65,2.191
		c-0.433,0.686-1.058,1.216-1.874,1.591s-1.741,0.562-2.771,0.562c-1.708,0-3.009-0.37-3.904-1.112
		C127.786,239.924,127.215,238.826,126.967,237.368z"/>
	<path class="st3" d="M140.541,225.185v-2.677h2.228v2.677H140.541z M140.541,241.468v-13.735h2.228v13.735H140.541z"/>
	<path class="st3" d="M151.021,239.385l0.321,2.057c-0.627,0.138-1.188,0.207-1.683,0.207c-0.809,0-1.436-0.134-1.881-0.401
		c-0.445-0.267-0.759-0.618-0.94-1.054s-0.271-1.352-0.271-2.748v-7.902h-1.634v-1.811h1.634v-3.401l2.215-1.396v4.798h2.239v1.811
		h-2.239v8.031c0,0.664,0.039,1.091,0.117,1.28c0.078,0.19,0.206,0.341,0.384,0.453c0.177,0.112,0.431,0.168,0.761,0.168
		C150.291,239.476,150.617,239.446,151.021,239.385z"/>
	<path class="st3" d="M153.211,225.185v-2.677h2.228v2.677H153.211z M153.211,241.468v-13.735h2.228v13.735H153.211z"/>
	<path class="st3" d="M162.479,241.468l-4.999-13.735h2.352l2.821,8.226c0.305,0.888,0.585,1.811,0.841,2.768
		c0.198-0.725,0.475-1.596,0.829-2.612l2.92-8.381h2.289l-4.974,13.735H162.479z"/>
	<path class="st3" d="M171.511,225.185v-2.677h2.228v2.677H171.511z M171.511,241.468v-13.735h2.228v13.735H171.511z"/>
	<path class="st3" d="M181.992,239.385l0.321,2.057c-0.627,0.138-1.188,0.207-1.683,0.207c-0.809,0-1.436-0.134-1.881-0.401
		c-0.445-0.267-0.759-0.618-0.94-1.054s-0.271-1.352-0.271-2.748v-7.902h-1.634v-1.811h1.634v-3.401l2.215-1.396v4.798h2.239v1.811
		h-2.239v8.031c0,0.664,0.039,1.091,0.117,1.28c0.078,0.19,0.206,0.341,0.384,0.453c0.177,0.112,0.431,0.168,0.761,0.168
		C181.261,239.476,181.587,239.446,181.992,239.385z"/>
	<path class="st3" d="M184.071,246.757l-0.247-2.186c0.486,0.138,0.911,0.207,1.274,0.207c0.495,0,0.891-0.086,1.188-0.259
		s0.54-0.414,0.73-0.725c0.14-0.232,0.366-0.811,0.681-1.732c0.041-0.13,0.106-0.319,0.197-0.569l-4.986-13.761h2.4l2.734,7.954
		c0.354,1.009,0.673,2.069,0.953,3.182c0.256-1.069,0.561-2.113,0.916-3.13l2.809-8.006h2.227l-4.998,13.968
		c-0.537,1.509-0.953,2.548-1.25,3.117c-0.396,0.767-0.85,1.329-1.361,1.688c-0.512,0.357-1.122,0.537-1.831,0.537
		C185.078,247.043,184.599,246.947,184.071,246.757z"/>
	<path class="st3" d="M203.881,241.468v-18.96h2.227v6.803c1.039-1.259,2.352-1.889,3.935-1.889c0.974,0,1.819,0.2,2.537,0.602
		s1.231,0.955,1.54,1.662c0.31,0.707,0.464,1.732,0.464,3.078v8.704h-2.227v-8.704c0-1.164-0.241-2.012-0.724-2.542
		c-0.483-0.529-1.166-0.795-2.048-0.795c-0.66,0-1.281,0.179-1.862,0.537c-0.582,0.357-0.996,0.842-1.244,1.454
		c-0.247,0.612-0.371,1.458-0.371,2.535v7.515H203.881z"/>
	<path class="st3" d="M226.969,237.045l2.302,0.298c-0.363,1.405-1.036,2.496-2.018,3.272c-0.981,0.775-2.235,1.163-3.761,1.163
		c-1.923,0-3.446-0.618-4.572-1.855s-1.689-2.973-1.689-5.206c0-2.311,0.569-4.104,1.708-5.38c1.138-1.275,2.614-1.914,4.43-1.914
		c1.757,0,3.192,0.626,4.306,1.876s1.671,3.009,1.671,5.276c0,0.138-0.005,0.345-0.013,0.62h-9.8c0.082,1.51,0.49,2.664,1.225,3.467
		c0.734,0.802,1.65,1.202,2.747,1.202c0.816,0,1.514-0.224,2.091-0.672C226.173,238.744,226.63,238.028,226.969,237.045z
		 M219.657,233.281h7.337c-0.099-1.154-0.379-2.021-0.841-2.6c-0.71-0.896-1.63-1.345-2.76-1.345c-1.022,0-1.883,0.358-2.58,1.073
		C220.116,231.126,219.731,232.083,219.657,233.281z"/>
	<path class="st3" d="M232.043,241.468v-13.735h2.005v2.082c0.511-0.974,0.983-1.616,1.417-1.927
		c0.433-0.311,0.909-0.466,1.429-0.466c0.751,0,1.514,0.25,2.289,0.75l-0.768,2.16c-0.544-0.337-1.089-0.505-1.633-0.505
		c-0.487,0-0.924,0.153-1.312,0.459c-0.388,0.307-0.664,0.731-0.829,1.274c-0.247,0.828-0.371,1.733-0.371,2.716v7.191H232.043z"/>
	<path class="st3" d="M249.502,237.045l2.302,0.298c-0.363,1.405-1.036,2.496-2.018,3.272c-0.981,0.775-2.235,1.163-3.761,1.163
		c-1.923,0-3.446-0.618-4.572-1.855s-1.689-2.973-1.689-5.206c0-2.311,0.569-4.104,1.708-5.38c1.138-1.275,2.614-1.914,4.43-1.914
		c1.757,0,3.192,0.626,4.306,1.876s1.671,3.009,1.671,5.276c0,0.138-0.005,0.345-0.013,0.62h-9.8c0.082,1.51,0.49,2.664,1.225,3.467
		c0.734,0.802,1.65,1.202,2.747,1.202c0.816,0,1.514-0.224,2.091-0.672C248.706,238.744,249.163,238.028,249.502,237.045z
		 M242.189,233.281h7.337c-0.099-1.154-0.379-2.021-0.841-2.6c-0.71-0.896-1.63-1.345-2.76-1.345c-1.022,0-1.883,0.358-2.58,1.073
		C242.648,231.126,242.263,232.083,242.189,233.281z"/>
</g>
</svg>