<!-- Generator: Adobe Illustrator 22.0.1, SVG Export Plug-In  -->
<svg version="1.1"
	 xmlns="http://www.w3.org/2000/svg" xmlns:xlink="http://www.w3.org/1999/xlink" xmlns:a="http://ns.adobe.com/AdobeSVGViewerExtensions/3.0/"
	 x="0px" y="0px" width="118.343px" height="118.343px" viewBox="0 0 118.343 118.343"
	 style="enable-background:new 0 0 118.343 118.343;" xml:space="preserve">
<style type="text/css">
	.st0{fill:#379EC8;}
	.st1{fill:#FFFFFF;}
</style>
<defs>
</defs>
<g>
	<circle class="st0" cx="59.171" cy="59.171" r="59.171"/>
	<g>
		<path class="st1" d="M21.011,54.667c0.153-18.253,11.555-34.248,28.228-38.585c14.748-3.837,27.431,0.509,37.657,12.439
			c4.911,5.73,7.832,12.591,8.793,20.252c1.63,13.003-1.847,24.347-10.526,33.733c-7.973,8.623-16.086,17.099-24.138,25.64
			c-1.839,1.951-2.971,1.959-4.789,0.031c-8.129-8.623-16.289-17.215-24.377-25.882c-5.552-5.949-8.966-13.106-10.214-21.382
			C21.334,58.849,21.218,56.75,21.011,54.667z M58.569,103.424c0.421-0.557,0.606-0.853,0.839-1.1
			c7.329-7.784,14.714-15.51,21.983-23.356c8.408-9.075,11.365-19.945,8.765-32.348C86.41,28.753,69.308,17.101,52.408,20.726
			C35.695,24.31,24.5,40.534,26.402,58.462c0.834,7.867,3.919,14.624,9.172,20.233c7.406,7.909,14.857,15.77,22.281,23.658
			C58.084,102.598,58.238,102.923,58.569,103.424z"/>
		<path class="st1" d="M58.567,70.411c-8.27-0.013-14.971-7.157-14.958-15.948c0.013-8.73,6.828-15.919,15.058-15.882
			c8.243,0.037,14.975,7.23,14.962,15.989C73.615,63.322,66.863,70.424,58.567,70.411z M48.672,54.493
			c-0.01,5.847,4.386,10.563,9.899,10.618c5.458,0.055,9.961-4.687,9.991-10.52c0.031-5.864-4.379-10.621-9.858-10.635
			C53.115,43.941,48.682,48.598,48.672,54.493z"/>
	</g>
</g>
</svg>