<!-- Generator: Adobe Illustrator 22.0.1, SVG Export Plug-In  -->
<svg version="1.1"
	 xmlns="http://www.w3.org/2000/svg" xmlns:xlink="http://www.w3.org/1999/xlink" xmlns:a="http://ns.adobe.com/AdobeSVGViewerExtensions/3.0/"
	 x="0px" y="0px" width="283.434px" height="45.253px" viewBox="0 0 283.434 45.253"
	 style="enable-background:new 0 0 283.434 45.253;" xml:space="preserve">
<style type="text/css">
	.st0{fill:#FFFFFF;}
</style>
<defs>
</defs>
<g>
	<path class="st0" d="M18.084,12.311c-0.368-1.659-1.267-2.818-2.696-3.478c-0.799-0.362-1.687-0.544-2.664-0.544
		c-1.871,0-3.408,0.738-4.611,2.213c-1.204,1.475-1.806,3.692-1.806,6.652c0,2.982,0.651,5.094,1.955,6.333
		c1.303,1.239,2.785,1.858,4.446,1.858c1.629,0,2.964-0.488,4.005-1.466c1.04-0.978,1.682-2.257,1.923-3.841H13.26v-4.054h9.681
		v13.035h-3.217l-0.488-3.032c-0.936,1.148-1.776,1.958-2.522,2.428c-1.283,0.82-2.859,1.23-4.73,1.23
		c-3.08,0-5.603-1.114-7.567-3.343c-2.05-2.24-3.075-5.303-3.075-9.19c0-3.93,1.035-7.081,3.106-9.452
		c2.07-2.372,4.809-3.558,8.214-3.558c2.954,0,5.327,0.783,7.119,2.349s2.819,3.519,3.082,5.858H18.084z"/>
	<path class="st0" d="M31.801,29.021h-4.493V4.729h4.493V29.021z"/>
	<path class="st0" d="M50.516,26.823c-1.45,1.871-3.652,2.808-6.606,2.808c-2.953,0-5.155-0.937-6.605-2.808
		c-1.451-1.872-2.176-4.125-2.176-6.759c0-2.591,0.725-4.836,2.176-6.734c1.45-1.899,3.652-2.85,6.605-2.85
		c2.954,0,5.156,0.95,6.606,2.85c1.45,1.898,2.176,4.144,2.176,6.734C52.691,22.698,51.966,24.951,50.516,26.823z M46.921,24.228
		c0.704-0.977,1.057-2.364,1.057-4.163c0-1.8-0.353-3.185-1.057-4.155s-1.714-1.456-3.027-1.456s-2.325,0.485-3.035,1.456
		c-0.709,0.971-1.064,2.355-1.064,4.155c0,1.799,0.355,3.187,1.064,4.163c0.71,0.976,1.722,1.464,3.035,1.464
		S46.217,25.203,46.921,24.228z"/>
	<path class="st0" d="M70.581,13.217c1.286,1.703,1.929,3.9,1.929,6.592c0,2.791-0.635,5.104-1.902,6.938
		c-1.268,1.835-3.037,2.752-5.309,2.752c-1.427,0-2.572-0.297-3.438-0.89c-0.519-0.352-1.078-0.967-1.68-1.846v2.258H55.75V4.763
		h4.493v8.636c0.571-0.835,1.2-1.473,1.889-1.912c0.814-0.549,1.851-0.824,3.11-0.824C67.516,10.662,69.296,11.514,70.581,13.217z
		 M66.825,24.159c0.646-0.978,0.971-2.263,0.971-3.856c0-1.274-0.159-2.329-0.478-3.164c-0.604-1.582-1.717-2.373-3.338-2.373
		c-1.643,0-2.771,0.774-3.387,2.324c-0.317,0.823-0.477,1.889-0.477,3.196c0,1.538,0.328,2.812,0.985,3.823
		c0.657,1.012,1.658,1.517,3.005,1.517C65.273,25.626,66.179,25.137,66.825,24.159z"/>
	<path class="st0" d="M82.438,18.095c0.837-0.11,1.435-0.247,1.795-0.412c0.646-0.286,0.969-0.73,0.969-1.335
		c0-0.736-0.248-1.244-0.743-1.524s-1.223-0.42-2.182-0.42c-1.076,0-1.838,0.274-2.285,0.823c-0.319,0.407-0.533,0.957-0.64,1.648
		h-4.335c0.095-1.57,0.517-2.861,1.267-3.873c1.192-1.582,3.24-2.373,6.144-2.373c1.89,0,3.568,0.391,5.035,1.17
		c1.468,0.781,2.201,2.253,2.201,4.417v8.239c0,0.572,0.011,1.264,0.031,2.077c0.032,0.615,0.121,1.032,0.269,1.253
		c0.147,0.219,0.368,0.4,0.662,0.543v0.692h-4.888c-0.137-0.362-0.231-0.703-0.283-1.021c-0.053-0.319-0.095-0.682-0.127-1.088
		c-0.623,0.703-1.343,1.302-2.156,1.796c-0.973,0.582-2.072,0.874-3.299,0.874c-1.564,0-2.857-0.465-3.877-1.393
		c-1.021-0.929-1.53-2.244-1.53-3.947c0-2.208,0.82-3.807,2.461-4.796c0.9-0.537,2.225-0.922,3.972-1.152L82.438,18.095z
		 M85.187,20.286c-0.288,0.188-0.578,0.338-0.871,0.453c-0.293,0.116-0.695,0.223-1.207,0.321l-1.022,0.198
		c-0.959,0.176-1.647,0.39-2.065,0.643c-0.708,0.429-1.062,1.093-1.062,1.994c0,0.802,0.216,1.382,0.648,1.738
		c0.432,0.357,0.958,0.536,1.577,0.536c0.981,0,1.886-0.297,2.713-0.891c0.827-0.593,1.257-1.675,1.289-3.246V20.286z"/>
	<path class="st0" d="M98.178,29.021h-4.493V4.729h4.493V29.021z"/>
	<path class="st0" d="M126.788,5.355c0.855,0.385,1.581,0.951,2.176,1.697c0.491,0.616,0.881,1.297,1.168,2.044
		s0.431,1.599,0.431,2.555c0,1.153-0.278,2.288-0.836,3.403c-0.557,1.115-1.477,1.902-2.759,2.364
		c1.072,0.45,1.831,1.091,2.278,1.92c0.446,0.829,0.67,2.096,0.67,3.798v1.632c0,1.11,0.043,1.862,0.128,2.258
		c0.129,0.626,0.428,1.088,0.897,1.384v0.61h-5.361c-0.146-0.538-0.252-0.972-0.315-1.302c-0.126-0.682-0.194-1.379-0.204-2.093
		l-0.032-2.258c-0.02-1.55-0.275-2.582-0.768-3.099c-0.492-0.516-1.415-0.774-2.767-0.774h-4.743v9.525h-4.745V4.729h11.115
		C124.71,4.763,125.933,4.972,126.788,5.355z M116.751,8.948v6.526h5.227c1.038,0,1.816-0.132,2.336-0.396
		c0.918-0.462,1.377-1.374,1.377-2.735c0-1.473-0.444-2.461-1.332-2.967c-0.499-0.285-1.248-0.429-2.246-0.429H116.751z"/>
	<path class="st0" d="M141.657,18.095c0.837-0.11,1.435-0.247,1.795-0.412c0.646-0.286,0.969-0.73,0.969-1.335
		c0-0.736-0.248-1.244-0.743-1.524s-1.223-0.42-2.182-0.42c-1.076,0-1.838,0.274-2.285,0.823c-0.319,0.407-0.533,0.957-0.64,1.648
		h-4.335c0.095-1.57,0.517-2.861,1.267-3.873c1.192-1.582,3.24-2.373,6.144-2.373c1.89,0,3.568,0.391,5.035,1.17
		c1.468,0.781,2.201,2.253,2.201,4.417v8.239c0,0.572,0.011,1.264,0.031,2.077c0.032,0.615,0.121,1.032,0.269,1.253
		c0.147,0.219,0.368,0.4,0.662,0.543v0.692h-4.888c-0.137-0.362-0.231-0.703-0.283-1.021c-0.053-0.319-0.095-0.682-0.127-1.088
		c-0.623,0.703-1.343,1.302-2.156,1.796c-0.973,0.582-2.072,0.874-3.299,0.874c-1.564,0-2.857-0.465-3.877-1.393
		c-1.021-0.929-1.53-2.244-1.53-3.947c0-2.208,0.82-3.807,2.461-4.796c0.9-0.537,2.225-0.922,3.972-1.152L141.657,18.095z
		 M144.405,20.286c-0.288,0.188-0.578,0.338-0.871,0.453c-0.293,0.116-0.695,0.223-1.207,0.321l-1.022,0.198
		c-0.959,0.176-1.647,0.39-2.065,0.643c-0.708,0.429-1.062,1.093-1.062,1.994c0,0.802,0.216,1.382,0.648,1.738
		c0.432,0.357,0.958,0.536,1.577,0.536c0.981,0,1.886-0.297,2.713-0.891c0.827-0.593,1.257-1.675,1.289-3.246V20.286z"/>
	<path class="st0" d="M161.922,11.346c0.81,0.479,1.466,1.141,1.971,1.986V4.763h4.557v24.258h-4.367v-2.488
		c-0.642,1.065-1.372,1.84-2.191,2.323c-0.82,0.483-1.84,0.726-3.059,0.726c-2.008,0-3.697-0.849-5.069-2.546
		s-2.058-3.876-2.058-6.535c0-3.064,0.676-5.477,2.026-7.234c1.351-1.757,3.155-2.637,5.416-2.637
		C160.188,10.629,161.112,10.868,161.922,11.346z M163.025,24.143c0.662-0.988,0.993-2.269,0.993-3.84
		c0-2.197-0.53-3.768-1.592-4.713c-0.652-0.571-1.409-0.857-2.271-0.857c-1.314,0-2.278,0.52-2.894,1.558
		c-0.614,1.038-0.922,2.326-0.922,3.864c0,1.659,0.312,2.986,0.938,3.98c0.626,0.994,1.574,1.491,2.846,1.491
		C161.396,25.626,162.363,25.131,163.025,24.143z"/>
	<path class="st0" d="M186.864,26.823c-1.45,1.871-3.652,2.808-6.606,2.808c-2.953,0-5.155-0.937-6.605-2.808
		c-1.451-1.872-2.176-4.125-2.176-6.759c0-2.591,0.725-4.836,2.176-6.734c1.45-1.899,3.652-2.85,6.605-2.85
		c2.954,0,5.156,0.95,6.606,2.85c1.45,1.898,2.176,4.144,2.176,6.734C189.04,22.698,188.314,24.951,186.864,26.823z M183.27,24.228
		c0.704-0.977,1.057-2.364,1.057-4.163c0-1.8-0.353-3.185-1.057-4.155s-1.714-1.456-3.027-1.456s-2.325,0.485-3.035,1.456
		c-0.709,0.971-1.064,2.355-1.064,4.155c0,1.799,0.355,3.187,1.064,4.163c0.71,0.976,1.722,1.464,3.035,1.464
		S182.565,25.203,183.27,24.228z"/>
	<path class="st0" d="M206.114,12.088c1.125,0.973,1.688,2.585,1.688,4.837v12.096h-4.604V18.095c0-0.944-0.12-1.67-0.36-2.175
		c-0.438-0.924-1.272-1.385-2.504-1.385c-1.513,0-2.551,0.676-3.114,2.027c-0.293,0.714-0.438,1.625-0.438,2.735v9.723h-4.493
		v-17.93h4.352v2.62c0.575-0.923,1.119-1.588,1.633-1.994c0.921-0.725,2.088-1.088,3.501-1.088
		C203.542,10.629,204.989,11.115,206.114,12.088z"/>
	<path class="st0" d="M236.73,4.729h6.987v24.291h-4.524V12.59c0-0.472,0.005-1.134,0.016-1.985c0.011-0.851,0.016-1.508,0.016-1.97
		l-4.404,20.386h-4.719l-4.373-20.386c0,0.462,0.005,1.119,0.016,1.97c0.011,0.852,0.016,1.514,0.016,1.985v16.431h-4.524V4.729
		h7.066l4.23,19.101L236.73,4.729z"/>
	<path class="st0" d="M254.655,18.095c0.837-0.11,1.435-0.247,1.795-0.412c0.646-0.286,0.969-0.73,0.969-1.335
		c0-0.736-0.248-1.244-0.743-1.524s-1.223-0.42-2.182-0.42c-1.076,0-1.838,0.274-2.285,0.823c-0.319,0.407-0.533,0.957-0.64,1.648
		h-4.335c0.095-1.57,0.517-2.861,1.267-3.873c1.192-1.582,3.24-2.373,6.144-2.373c1.89,0,3.568,0.391,5.035,1.17
		c1.468,0.781,2.201,2.253,2.201,4.417v8.239c0,0.572,0.011,1.264,0.031,2.077c0.032,0.615,0.121,1.032,0.269,1.253
		c0.147,0.219,0.368,0.4,0.662,0.543v0.692h-4.888c-0.137-0.362-0.231-0.703-0.283-1.021c-0.053-0.319-0.095-0.682-0.127-1.088
		c-0.623,0.703-1.343,1.302-2.156,1.796c-0.973,0.582-2.072,0.874-3.299,0.874c-1.564,0-2.857-0.465-3.877-1.393
		c-1.021-0.929-1.53-2.244-1.53-3.947c0-2.208,0.82-3.807,2.461-4.796c0.9-0.537,2.225-0.922,3.972-1.152L254.655,18.095z
		 M257.403,20.286c-0.288,0.188-0.578,0.338-0.871,0.453c-0.293,0.116-0.695,0.223-1.207,0.321l-1.022,0.198
		c-0.959,0.176-1.647,0.39-2.065,0.643c-0.708,0.429-1.062,1.093-1.062,1.994c0,0.802,0.216,1.382,0.648,1.738
		c0.432,0.357,0.958,0.536,1.577,0.536c0.981,0,1.886-0.297,2.713-0.891c0.827-0.593,1.257-1.675,1.289-3.246V20.286z"/>
	<path class="st0" d="M280.259,12.986c1.402,1.549,2.103,3.822,2.103,6.822c0,3.164-0.685,5.576-2.055,7.234
		c-1.37,1.659-3.134,2.488-5.292,2.488c-1.376,0-2.519-0.357-3.428-1.071c-0.497-0.396-0.984-0.972-1.46-1.729v9.359h-4.446V11.058
		h4.305v2.653c0.486-0.779,1.005-1.395,1.555-1.846c1.005-0.802,2.2-1.203,3.586-1.203
		C277.146,10.662,278.857,11.438,280.259,12.986z M276.811,16.364c-0.61-1.065-1.601-1.599-2.971-1.599
		c-1.646,0-2.776,0.808-3.393,2.423c-0.319,0.856-0.478,1.944-0.478,3.263c0,2.088,0.535,3.555,1.607,4.4
		c0.637,0.494,1.391,0.741,2.262,0.741c1.264,0,2.228-0.505,2.892-1.517c0.664-1.01,0.996-2.355,0.996-4.037
		C277.727,18.654,277.421,17.43,276.811,16.364z"/>
</g>
</svg>