<!-- Generator: Adobe Illustrator 22.0.1, SVG Export Plug-In  -->
<svg version="1.1"
	 xmlns="http://www.w3.org/2000/svg" xmlns:xlink="http://www.w3.org/1999/xlink" xmlns:a="http://ns.adobe.com/AdobeSVGViewerExtensions/3.0/"
	 x="0px" y="0px" width="494.009px" height="56.299px" viewBox="0 0 494.009 56.299"
	 style="enable-background:new 0 0 494.009 56.299;" xml:space="preserve">
<style type="text/css">
	.st0{fill:#F9D50A;}
	.st1{fill:#FFFFFF;}
</style>
<defs>
</defs>
<path class="st0" d="M479.455,55.806H14.554C6.516,55.806,0,49.29,0,41.252V14.554C0,6.516,6.516,0,14.554,0h464.901
	c8.038,0,14.554,6.516,14.554,14.554v26.698C494.009,49.29,487.493,55.806,479.455,55.806z"/>
<g>
	<path class="st1" d="M166.101,23.356c-0.368-1.659-1.267-2.818-2.696-3.478c-0.799-0.362-1.687-0.544-2.664-0.544
		c-1.871,0-3.408,0.738-4.611,2.213c-1.204,1.475-1.806,3.692-1.806,6.652c0,2.982,0.651,5.094,1.955,6.333
		c1.303,1.239,2.785,1.858,4.446,1.858c1.629,0,2.964-0.488,4.005-1.466c1.04-0.978,1.682-2.257,1.923-3.841h-5.376v-4.054h9.681
		v13.035h-3.217l-0.488-3.032c-0.936,1.148-1.776,1.958-2.522,2.428c-1.283,0.82-2.859,1.23-4.73,1.23
		c-3.08,0-5.603-1.114-7.567-3.343c-2.05-2.24-3.075-5.303-3.075-9.19c0-3.93,1.035-7.081,3.106-9.452
		c2.07-2.372,4.809-3.558,8.214-3.558c2.954,0,5.327,0.783,7.119,2.349s2.819,3.519,3.082,5.858H166.101z"/>
	<path class="st1" d="M186.43,22.468c1.198,0.561,2.188,1.447,2.97,2.657c0.703,1.067,1.16,2.305,1.369,3.714
		c0.121,0.825,0.17,2.014,0.147,3.564h-12.517c0.07,1.802,0.669,3.065,1.798,3.791c0.686,0.45,1.512,0.675,2.478,0.675
		c1.023,0,1.854-0.274,2.495-0.823c0.349-0.297,0.657-0.709,0.925-1.236h4.587c-0.121,1.065-0.676,2.148-1.666,3.246
		c-1.539,1.747-3.694,2.621-6.465,2.621c-2.287,0-4.306-0.737-6.054-2.211c-1.748-1.473-2.622-3.87-2.622-7.191
		c0-3.111,0.789-5.498,2.367-7.158s3.627-2.49,6.146-2.49C183.884,21.626,185.23,21.906,186.43,22.468z M179.707,26.524
		c-0.635,0.685-1.034,1.611-1.197,2.781h7.742c-0.082-1.247-0.481-2.193-1.197-2.839c-0.717-0.646-1.604-0.968-2.665-0.968
		C181.236,25.499,180.342,25.841,179.707,26.524z"/>
	<path class="st1" d="M191.423,25.614v-3.346h2.396v-5.01h4.446v5.01h2.791v3.346h-2.791v9.492c0,0.736,0.089,1.194,0.268,1.376
		c0.179,0.181,0.726,0.271,1.64,0.271c0.137,0,0.281-0.003,0.434-0.008c0.152-0.006,0.303-0.014,0.45-0.024v3.51l-2.129,0.082
		c-2.123,0.077-3.574-0.308-4.352-1.153c-0.505-0.538-0.757-1.368-0.757-2.488V25.614H191.423z"/>
	<path class="st1" d="M216.775,32.568c0.15,1.109,0.445,1.938,0.885,2.488c0.806,1,2.185,1.499,4.138,1.499
		c1.17,0,2.119-0.131,2.85-0.395c1.384-0.506,2.076-1.445,2.076-2.818c0-0.802-0.339-1.423-1.017-1.862
		c-0.679-0.429-1.755-0.808-3.228-1.137l-2.516-0.577c-2.473-0.571-4.172-1.191-5.097-1.862c-1.566-1.12-2.349-2.872-2.349-5.257
		c0-2.176,0.766-3.982,2.298-5.422s3.783-2.158,6.752-2.158c2.479,0,4.594,0.678,6.344,2.035c1.75,1.356,2.668,3.326,2.753,5.908
		h-4.666c-0.087-1.462-0.712-2.5-1.875-3.115c-0.776-0.406-1.74-0.609-2.894-0.609c-1.282,0-2.306,0.264-3.071,0.791
		s-1.147,1.264-1.147,2.208c0,0.868,0.377,1.517,1.132,1.944c0.484,0.286,1.514,0.621,3.087,1.006l4.078,1.005
		c1.788,0.439,3.128,1.027,4.02,1.763c1.386,1.144,2.078,2.797,2.078,4.961c0,2.219-0.82,4.062-2.462,5.529
		c-1.642,1.466-3.96,2.199-6.956,2.199c-3.06,0-5.466-0.722-7.219-2.167c-1.754-1.444-2.63-3.431-2.63-5.957H216.775z"/>
	<path class="st1" d="M232.683,25.614v-3.346h2.396v-5.01h4.446v5.01h2.791v3.346h-2.791v9.492c0,0.736,0.089,1.194,0.268,1.376
		c0.179,0.181,0.726,0.271,1.64,0.271c0.137,0,0.281-0.003,0.434-0.008c0.152-0.006,0.303-0.014,0.45-0.024v3.51l-2.129,0.082
		c-2.123,0.077-3.574-0.308-4.352-1.153c-0.505-0.538-0.757-1.368-0.757-2.488V25.614H232.683z"/>
	<path class="st1" d="M252.009,29.14c0.837-0.11,1.435-0.247,1.795-0.412c0.646-0.286,0.969-0.73,0.969-1.335
		c0-0.736-0.248-1.244-0.743-1.524s-1.223-0.42-2.182-0.42c-1.076,0-1.838,0.274-2.285,0.823c-0.319,0.407-0.533,0.957-0.64,1.648
		h-4.335c0.095-1.57,0.517-2.861,1.267-3.873c1.192-1.582,3.24-2.373,6.144-2.373c1.89,0,3.568,0.391,5.035,1.17
		c1.468,0.781,2.201,2.253,2.201,4.417v8.239c0,0.572,0.011,1.264,0.031,2.077c0.032,0.615,0.121,1.032,0.269,1.253
		c0.147,0.219,0.368,0.4,0.662,0.543v0.692h-4.888c-0.137-0.362-0.231-0.703-0.283-1.021c-0.053-0.319-0.095-0.682-0.127-1.088
		c-0.623,0.703-1.343,1.302-2.156,1.796c-0.973,0.582-2.072,0.874-3.299,0.874c-1.564,0-2.857-0.465-3.877-1.393
		c-1.021-0.929-1.53-2.244-1.53-3.947c0-2.208,0.82-3.807,2.461-4.796c0.9-0.537,2.225-0.922,3.972-1.152L252.009,29.14z
		 M254.757,31.332c-0.288,0.188-0.578,0.338-0.871,0.453c-0.293,0.116-0.695,0.223-1.207,0.321l-1.022,0.198
		c-0.959,0.176-1.647,0.39-2.065,0.643c-0.708,0.429-1.062,1.093-1.062,1.994c0,0.802,0.216,1.382,0.648,1.738
		c0.432,0.357,0.958,0.536,1.577,0.536c0.981,0,1.886-0.297,2.713-0.891c0.827-0.593,1.257-1.675,1.289-3.246V31.332z"/>
	<path class="st1" d="M272.707,21.683c0.058,0.006,0.187,0.014,0.387,0.024v4.812c-0.284-0.033-0.536-0.055-0.757-0.066
		c-0.221-0.011-0.4-0.016-0.536-0.016c-1.809,0-3.022,0.615-3.643,1.846c-0.347,0.691-0.521,1.758-0.521,3.196v8.586h-4.524V22.103
		h4.288v3.132c0.694-1.197,1.298-2.017,1.813-2.456c0.841-0.735,1.934-1.104,3.279-1.104
		C272.578,21.675,272.649,21.678,272.707,21.683z"/>
	<path class="st1" d="M273.96,25.614v-3.346h2.396v-5.01h4.446v5.01h2.791v3.346h-2.791v9.492c0,0.736,0.089,1.194,0.268,1.376
		c0.179,0.181,0.726,0.271,1.64,0.271c0.137,0,0.281-0.003,0.434-0.008c0.152-0.006,0.303-0.014,0.45-0.024v3.51l-2.129,0.082
		c-2.123,0.077-3.574-0.308-4.352-1.153c-0.505-0.538-0.757-1.368-0.757-2.488V25.614H273.96z"/>
	<path class="st1" d="M297.678,22.468c1.198,0.561,2.188,1.447,2.97,2.657c0.703,1.067,1.16,2.305,1.369,3.714
		c0.121,0.825,0.17,2.014,0.147,3.564h-12.517c0.07,1.802,0.669,3.065,1.798,3.791c0.686,0.45,1.512,0.675,2.478,0.675
		c1.023,0,1.854-0.274,2.495-0.823c0.349-0.297,0.657-0.709,0.925-1.236h4.587c-0.121,1.065-0.676,2.148-1.666,3.246
		c-1.539,1.747-3.694,2.621-6.465,2.621c-2.287,0-4.306-0.737-6.054-2.211c-1.748-1.473-2.622-3.87-2.622-7.191
		c0-3.111,0.789-5.498,2.367-7.158s3.627-2.49,6.146-2.49C295.132,21.626,296.478,21.906,297.678,22.468z M290.955,26.524
		c-0.635,0.685-1.034,1.611-1.197,2.781h7.742c-0.082-1.247-0.481-2.193-1.197-2.839c-0.717-0.646-1.604-0.968-2.665-0.968
		C292.484,25.499,291.59,25.841,290.955,26.524z"/>
	<path class="st1" d="M313.55,22.391c0.81,0.479,1.466,1.141,1.971,1.986v-8.569h4.557v24.258h-4.367v-2.488
		c-0.642,1.065-1.372,1.84-2.191,2.323c-0.82,0.483-1.84,0.726-3.059,0.726c-2.008,0-3.697-0.849-5.069-2.546
		s-2.058-3.876-2.058-6.535c0-3.064,0.676-5.477,2.026-7.234c1.351-1.757,3.155-2.637,5.416-2.637
		C311.815,21.675,312.74,21.914,313.55,22.391z M314.653,35.188c0.662-0.988,0.993-2.269,0.993-3.84c0-2.197-0.53-3.768-1.592-4.713
		c-0.652-0.571-1.409-0.857-2.271-0.857c-1.314,0-2.278,0.52-2.894,1.558c-0.614,1.038-0.922,2.326-0.922,3.864
		c0,1.659,0.312,2.986,0.938,3.98c0.626,0.994,1.574,1.491,2.846,1.491C313.024,36.672,313.991,36.176,314.653,35.188z"/>
</g>
</svg>