<!-- Generator: Adobe Illustrator 22.0.1, SVG Export Plug-In  -->
<svg version="1.1"
	 xmlns="http://www.w3.org/2000/svg" xmlns:xlink="http://www.w3.org/1999/xlink" xmlns:a="http://ns.adobe.com/AdobeSVGViewerExtensions/3.0/"
	 x="0px" y="0px" width="221.126px" height="31.33px" viewBox="0 0 221.126 31.33"
	 style="enable-background:new 0 0 221.126 31.33;" xml:space="preserve">
<style type="text/css">
	.st0{fill:#FFFFFF;}
</style>
<defs>
</defs>
<g>
	<path class="st0" d="M1.856,22.729V3.77h2.4v16.723h8.934v2.237H1.856z"/>
	<path class="st0" d="M15.776,6.447V3.77h2.228v2.678H15.776z M15.776,22.729V8.994h2.228v13.735H15.776z"/>
	<path class="st0" d="M25.044,22.729L20.045,8.994h2.352l2.821,8.226c0.305,0.889,0.585,1.812,0.841,2.769
		c0.198-0.725,0.475-1.596,0.829-2.613l2.92-8.381h2.289l-4.974,13.735H25.044z"/>
	<path class="st0" d="M43.06,18.307l2.302,0.297c-0.363,1.406-1.036,2.496-2.018,3.272s-2.235,1.164-3.761,1.164
		c-1.923,0-3.446-0.618-4.572-1.856c-1.126-1.236-1.689-2.972-1.689-5.205c0-2.311,0.569-4.104,1.708-5.38
		c1.138-1.276,2.614-1.914,4.43-1.914c1.757,0,3.192,0.625,4.306,1.875s1.671,3.009,1.671,5.276c0,0.139-0.005,0.346-0.013,0.621
		h-9.8c0.082,1.509,0.49,2.664,1.225,3.466s1.65,1.203,2.747,1.203c0.816,0,1.514-0.225,2.091-0.673
		C42.264,20.005,42.721,19.289,43.06,18.307z M35.747,14.543h7.337c-0.099-1.155-0.379-2.021-0.841-2.6
		c-0.71-0.896-1.63-1.345-2.76-1.345c-1.022,0-1.883,0.357-2.58,1.073S35.821,13.345,35.747,14.543z"/>
	<path class="st0" d="M55.408,22.729V3.77h3.613l4.293,13.425c0.396,1.25,0.685,2.186,0.866,2.807
		c0.206-0.69,0.528-1.703,0.966-3.04L69.489,3.77h3.229v18.96h-2.314V6.86l-5.271,15.869h-2.165L57.722,6.589v16.141H55.408z"/>
	<path class="st0" d="M85.303,18.307l2.302,0.297c-0.363,1.406-1.036,2.496-2.018,3.272s-2.235,1.164-3.761,1.164
		c-1.923,0-3.446-0.618-4.572-1.856c-1.126-1.236-1.689-2.972-1.689-5.205c0-2.311,0.569-4.104,1.708-5.38
		c1.138-1.276,2.614-1.914,4.43-1.914c1.757,0,3.192,0.625,4.306,1.875s1.671,3.009,1.671,5.276c0,0.139-0.005,0.346-0.013,0.621
		h-9.8c0.082,1.509,0.49,2.664,1.225,3.466s1.65,1.203,2.747,1.203c0.816,0,1.514-0.225,2.091-0.673
		C84.507,20.005,84.964,19.289,85.303,18.307z M77.99,14.543h7.337c-0.099-1.155-0.379-2.021-0.841-2.6
		c-0.71-0.896-1.63-1.345-2.76-1.345c-1.022,0-1.883,0.357-2.58,1.073S78.064,13.345,77.99,14.543z"/>
	<path class="st0" d="M98.975,21.035c-0.825,0.733-1.619,1.25-2.382,1.552s-1.582,0.453-2.456,0.453
		c-1.443,0-2.553-0.368-3.328-1.106c-0.775-0.736-1.163-1.679-1.163-2.825c0-0.673,0.146-1.287,0.438-1.843
		c0.293-0.557,0.677-1.003,1.151-1.339c0.474-0.336,1.008-0.591,1.603-0.763c0.437-0.121,1.097-0.237,1.979-0.35
		c1.798-0.225,3.122-0.491,3.972-0.802c0.008-0.319,0.013-0.521,0.013-0.608c0-0.947-0.211-1.616-0.631-2.004
		c-0.569-0.526-1.415-0.789-2.537-0.789c-1.048,0-1.821,0.191-2.32,0.575s-0.868,1.063-1.107,2.037l-2.178-0.311
		c0.198-0.974,0.524-1.761,0.978-2.36c0.454-0.599,1.109-1.061,1.968-1.384c0.857-0.323,1.852-0.484,2.982-0.484
		c1.121,0,2.033,0.138,2.734,0.413c0.701,0.276,1.217,0.623,1.546,1.041c0.33,0.419,0.562,0.947,0.693,1.585
		c0.074,0.396,0.111,1.112,0.111,2.146v3.104c0,2.164,0.048,3.533,0.143,4.105c0.095,0.574,0.282,1.123,0.562,1.649H99.42
		C99.189,22.247,99.041,21.682,98.975,21.035z M98.789,15.836c-0.809,0.346-2.021,0.639-3.638,0.88
		c-0.916,0.138-1.563,0.293-1.942,0.466c-0.38,0.172-0.673,0.424-0.879,0.756s-0.31,0.701-0.31,1.106
		c0,0.62,0.225,1.138,0.675,1.552c0.449,0.414,1.107,0.621,1.974,0.621c0.857,0,1.621-0.196,2.289-0.589s1.158-0.929,1.473-1.61
		c0.238-0.525,0.358-1.302,0.358-2.328V15.836z"/>
	<path class="st0" d="M103.603,18.63l2.203-0.362c0.123,0.923,0.468,1.63,1.033,2.121c0.564,0.491,1.354,0.737,2.369,0.737
		c1.022,0,1.781-0.218,2.276-0.653s0.743-0.946,0.743-1.532c0-0.526-0.219-0.94-0.656-1.242c-0.306-0.206-1.064-0.47-2.276-0.788
		c-1.634-0.432-2.766-0.805-3.396-1.119c-0.632-0.314-1.11-0.75-1.436-1.307c-0.326-0.556-0.489-1.17-0.489-1.843
		c0-0.612,0.135-1.179,0.402-1.7c0.269-0.521,0.633-0.955,1.095-1.3c0.347-0.268,0.819-0.494,1.417-0.679
		c0.599-0.186,1.239-0.278,1.924-0.278c1.031,0,1.937,0.155,2.717,0.466c0.779,0.31,1.354,0.73,1.726,1.261s0.627,1.239,0.768,2.127
		l-2.178,0.311c-0.1-0.707-0.386-1.259-0.86-1.655s-1.145-0.595-2.011-0.595c-1.022,0-1.753,0.177-2.189,0.53
		c-0.438,0.354-0.656,0.768-0.656,1.241c0,0.302,0.091,0.573,0.272,0.814c0.181,0.251,0.466,0.458,0.854,0.621
		c0.223,0.087,0.879,0.284,1.968,0.595c1.575,0.439,2.674,0.8,3.297,1.08s1.111,0.688,1.467,1.223
		c0.354,0.534,0.532,1.198,0.532,1.991c0,0.776-0.217,1.507-0.65,2.192c-0.433,0.686-1.058,1.216-1.874,1.591
		s-1.741,0.562-2.771,0.562c-1.708,0-3.009-0.371-3.904-1.112S103.851,20.087,103.603,18.63z"/>
	<path class="st0" d="M125.776,22.729v-2.018c-1.022,1.552-2.413,2.328-4.17,2.328c-0.775,0-1.499-0.155-2.171-0.466
		c-0.673-0.311-1.172-0.7-1.498-1.17c-0.325-0.471-0.555-1.046-0.687-1.727c-0.091-0.457-0.136-1.182-0.136-2.173V8.994h2.227v7.618
		c0,1.216,0.046,2.035,0.137,2.457c0.14,0.612,0.437,1.093,0.891,1.442c0.454,0.349,1.015,0.523,1.683,0.523
		c0.669,0,1.295-0.179,1.881-0.537c0.586-0.357,1-0.845,1.244-1.461c0.243-0.616,0.364-1.511,0.364-2.684V8.994h2.228v13.735
		H125.776z"/>
	<path class="st0" d="M131.232,22.729V8.994h2.005v2.083c0.511-0.975,0.983-1.617,1.417-1.927c0.433-0.311,0.909-0.466,1.429-0.466
		c0.751,0,1.514,0.25,2.289,0.75l-0.768,2.159c-0.544-0.336-1.089-0.504-1.633-0.504c-0.487,0-0.924,0.153-1.312,0.459
		c-0.388,0.307-0.664,0.73-0.829,1.273c-0.247,0.828-0.371,1.733-0.371,2.717v7.19H131.232z"/>
	<path class="st0" d="M148.691,18.307l2.302,0.297c-0.363,1.406-1.036,2.496-2.018,3.272s-2.235,1.164-3.761,1.164
		c-1.923,0-3.446-0.618-4.572-1.856c-1.126-1.236-1.689-2.972-1.689-5.205c0-2.311,0.569-4.104,1.708-5.38
		c1.138-1.276,2.614-1.914,4.43-1.914c1.757,0,3.192,0.625,4.306,1.875s1.671,3.009,1.671,5.276c0,0.139-0.005,0.346-0.013,0.621
		h-9.8c0.082,1.509,0.49,2.664,1.225,3.466s1.65,1.203,2.747,1.203c0.816,0,1.514-0.225,2.091-0.673
		C147.896,20.005,148.353,19.289,148.691,18.307z M141.379,14.543h7.337c-0.099-1.155-0.379-2.021-0.841-2.6
		c-0.71-0.896-1.63-1.345-2.76-1.345c-1.022,0-1.883,0.357-2.58,1.073S141.453,13.345,141.379,14.543z"/>
	<path class="st0" d="M153.79,22.729V8.994h1.991v1.928c0.413-0.673,0.961-1.214,1.646-1.623c0.685-0.41,1.464-0.614,2.338-0.614
		c0.974,0,1.771,0.211,2.395,0.634c0.623,0.422,1.062,1.013,1.317,1.771c1.04-1.604,2.393-2.405,4.059-2.405
		c1.304,0,2.306,0.377,3.007,1.132c0.701,0.754,1.052,1.916,1.052,3.484v9.429h-2.215v-8.652c0-0.931-0.072-1.602-0.217-2.011
		c-0.144-0.41-0.406-0.739-0.785-0.989c-0.38-0.25-0.825-0.375-1.336-0.375c-0.925,0-1.691,0.321-2.302,0.963
		c-0.61,0.643-0.916,1.671-0.916,3.085v7.979h-2.227v-8.924c0-1.034-0.182-1.811-0.545-2.328c-0.363-0.517-0.957-0.775-1.782-0.775
		c-0.627,0-1.206,0.172-1.738,0.517c-0.532,0.346-0.917,0.85-1.156,1.514s-0.359,1.621-0.359,2.871v7.126H153.79z"/>
	<path class="st0" d="M183.895,18.307l2.302,0.297c-0.363,1.406-1.036,2.496-2.018,3.272s-2.235,1.164-3.761,1.164
		c-1.923,0-3.446-0.618-4.572-1.856c-1.126-1.236-1.689-2.972-1.689-5.205c0-2.311,0.569-4.104,1.708-5.38
		c1.138-1.276,2.614-1.914,4.43-1.914c1.757,0,3.192,0.625,4.306,1.875s1.671,3.009,1.671,5.276c0,0.139-0.005,0.346-0.013,0.621
		h-9.8c0.082,1.509,0.49,2.664,1.225,3.466s1.65,1.203,2.747,1.203c0.816,0,1.514-0.225,2.091-0.673
		C183.099,20.005,183.556,19.289,183.895,18.307z M176.582,14.543h7.337c-0.099-1.155-0.379-2.021-0.841-2.6
		c-0.71-0.896-1.63-1.345-2.76-1.345c-1.022,0-1.883,0.357-2.58,1.073S176.656,13.345,176.582,14.543z"/>
	<path class="st0" d="M188.992,22.729V8.994h2.004v1.953c0.965-1.509,2.359-2.263,4.183-2.263c0.792,0,1.52,0.148,2.184,0.446
		c0.664,0.297,1.161,0.688,1.491,1.17c0.33,0.483,0.561,1.057,0.692,1.721c0.083,0.431,0.124,1.186,0.124,2.263v8.445h-2.228v-8.354
		c0-0.948-0.086-1.658-0.26-2.128c-0.173-0.47-0.48-0.845-0.922-1.125s-0.959-0.42-1.553-0.42c-0.948,0-1.768,0.314-2.456,0.944
		c-0.688,0.629-1.033,1.823-1.033,3.582v7.501H188.992z"/>
	<path class="st0" d="M207.948,20.647l0.321,2.056c-0.627,0.139-1.188,0.207-1.683,0.207c-0.809,0-1.436-0.133-1.881-0.4
		s-0.759-0.619-0.94-1.055c-0.182-0.435-0.271-1.352-0.271-2.748v-7.902h-1.634V8.994h1.634v-3.4l2.215-1.397v4.798h2.239v1.811
		h-2.239v8.032c0,0.664,0.039,1.091,0.117,1.28s0.206,0.341,0.384,0.452c0.177,0.112,0.431,0.169,0.761,0.169
		C207.218,20.738,207.544,20.708,207.948,20.647z"/>
	<path class="st0" d="M209.234,18.63l2.203-0.362c0.123,0.923,0.468,1.63,1.033,2.121c0.564,0.491,1.354,0.737,2.369,0.737
		c1.022,0,1.781-0.218,2.276-0.653s0.743-0.946,0.743-1.532c0-0.526-0.219-0.94-0.656-1.242c-0.306-0.206-1.064-0.47-2.276-0.788
		c-1.634-0.432-2.766-0.805-3.396-1.119c-0.632-0.314-1.11-0.75-1.436-1.307c-0.326-0.556-0.489-1.17-0.489-1.843
		c0-0.612,0.135-1.179,0.402-1.7c0.269-0.521,0.633-0.955,1.095-1.3c0.347-0.268,0.819-0.494,1.417-0.679
		c0.599-0.186,1.239-0.278,1.924-0.278c1.031,0,1.937,0.155,2.717,0.466c0.779,0.31,1.354,0.73,1.726,1.261s0.627,1.239,0.768,2.127
		l-2.178,0.311c-0.1-0.707-0.386-1.259-0.86-1.655s-1.145-0.595-2.011-0.595c-1.022,0-1.753,0.177-2.189,0.53
		c-0.438,0.354-0.656,0.768-0.656,1.241c0,0.302,0.091,0.573,0.272,0.814c0.181,0.251,0.466,0.458,0.854,0.621
		c0.223,0.087,0.879,0.284,1.968,0.595c1.575,0.439,2.674,0.8,3.297,1.08s1.111,0.688,1.467,1.223
		c0.354,0.534,0.532,1.198,0.532,1.991c0,0.776-0.217,1.507-0.65,2.192c-0.433,0.686-1.058,1.216-1.874,1.591
		s-1.741,0.562-2.771,0.562c-1.708,0-3.009-0.371-3.904-1.112S209.482,20.087,209.234,18.63z"/>
</g>
</svg>